<svg height="1024" width="1024" xmlns="http://www.w3.org/2000/svg" data-name="Layer 1" viewBox="0 0 100 100"><path d="M90.56006,49.05225V29.21484A24.24234,24.24234,0,0,0,66.34521,5H33.65479A24.24234,24.24234,0,0,0,9.43994,29.21484V49.05225A24.25151,24.25151,0,0,0,30.73486,73.0918L22.80957,92.23486a2,2,0,0,0,3.0625,2.354L53.75146,73.26709H66.34521A24.24234,24.24234,0,0,0,90.56006,49.05225ZM53.07422,69.26709a2.00058,2.00058,0,0,0-1.21484.41113L29.3501,86.89307l6.15234-14.86084a1.99951,1.99951,0,0,0-1.84765-2.76514A20.23776,20.23776,0,0,1,13.43994,49.05225V29.21484A20.23776,20.23776,0,0,1,33.65479,9H66.34521A20.23776,20.23776,0,0,1,86.56006,29.21484V49.05225A20.23776,20.23776,0,0,1,66.34521,69.26709Zm.88714-36.08624v26.3526a.62328.62328,0,0,1-.62329.62323H46.66193a.62328.62328,0,0,1-.62329-.62323V33.18085a.62327.62327,0,0,1,.62329-.62323h6.67614A.62327.62327,0,0,1,53.96136,33.18085Zm0-14.44727v6.67615a.62328.62328,0,0,1-.62329.62329H46.66193a.62328.62328,0,0,1-.62329-.62329V18.73358a.62328.62328,0,0,1,.62329-.62329h6.67614A.62328.62328,0,0,1,53.96136,18.73358Z"></path></svg>
