<?xml version="1.0" encoding="UTF-8"?>
<svg id="svg4" version="1.1" viewBox="0 0 288 288" xmlns="http://www.w3.org/2000/svg" xmlns:cc="http://creativecommons.org/ns#" xmlns:dc="http://purl.org/dc/elements/1.1/" xmlns:rdf="http://www.w3.org/1999/02/22-rdf-syntax-ns#"><metadata id="metadata10"><rdf:RDF><cc:Work rdf:about=""><dc:format>image/svg+xml</dc:format><dc:type rdf:resource="http://purl.org/dc/dcmitype/StillImage"/><dc:title/></cc:Work></rdf:RDF></metadata><g id="layer3"><rect id="rect4521" width="288" height="288" ry="36" fill="#ccc" fill-rule="evenodd"/></g><g id="layer4"><rect id="rect4513" x="48.601" y="42.502" width="113.04" height="201.49" rx="4" ry="4" fill="#fff" fill-rule="evenodd" stroke="#fff"/></g><g id="layer1"><path id="path2" d="m115 209.83 20.833-20.833-20.833-20.833zm-24.167-65.833-37.5 37.5c-10 10 4.1667 24.167 14.167 14.167l27.5-27.5v65.833c0 8.3333 10 14.167 17.5 6.6667l44.167-44.167c4.1667-4.1667 4.1667-10.833 0-15l-37.5-37.5 37.5-37.5c4.1667-4.1667 4.1667-10.833 0-15l-44.167-44.167c-7.5-7.5-17.5-1.6667-17.5 6.6667v65.833l-27.5-27.5c-10-10-24.167 4.1667-14.167 14.167zm24.167-65.833v41.667l20.833-20.833zm75 65.833c0 100-30 120-85 120s-85-20-85-120c0-100 31.667-120 85.833-120 54.167 0 84.167 20 84.167 120z" fill="#0082fc" stroke-width=".83333"/></g><g id="layer5"><g id="g162"><g id="g14" transform="matrix(.5 0 0 .5 72.627 53.156)"><path id="path2-6" d="m115.87 329.69c-12.161 0-22.019-9.858-22.019-22.019v-115.53c0-12.161 9.858-22.019 22.019-22.019h59.742v159.57z" clip-rule="evenodd" fill="#4d4d4d" fill-rule="evenodd" stroke-width="4"/><polygon id="polygon4" points="266.1 418.61 194.04 329.69 194.04 249.91 194.04 170.12 266.1 81.203 287.54 81.203 287.54 418.61" clip-rule="evenodd" fill="#4d4d4d" fill-rule="evenodd" stroke-width="4"/><g id="g12" stroke-width="2"><g id="g10" fill="#4d4d4d" stroke-width="2"><path id="path6" d="m364.5 123.44c-7.176-9.818-19.056-12.529-25.449-6.906-6.393 5.624-4.846 17.436 2.184 27.359 21.659 30.572 34.455 68.137 34.455 108.72 0 39.116-11.895 75.424-32.151 105.37-6.813 10.073-8.199 22.031-1.804 27.655s18.137 2.79 25.129-7.159c5.696-8.104 10.857-16.624 15.432-25.508 15.457-30.015 24.221-64.16 24.221-100.36 0-36.201-8.765-70.346-24.221-100.36-5.201-10.099-11.158-19.729-17.796-28.811z"/><path id="path8" d="m302.69 148.53c-6.389 5.62-4.757 17.389 1.899 27.568 14.298 21.868 22.665 48.197 22.665 76.52 0 26.856-7.522 51.922-20.49 73.091-6.353 10.37-7.77 22.336-1.383 27.954s18.141 2.771 24.819-7.393c17.589-26.771 27.88-58.994 27.88-93.652 0-36.126-11.178-69.608-30.15-97.025-6.919-10-18.851-12.683-25.24-7.063z"/></g></g></g></g></g></svg>
