<?xml version="1.0" encoding="UTF-8"?>
<svg width="499.65" height="470.25" viewBox="350.4 0 499.65 470.25" xmlns="http://www.w3.org/2000/svg"><defs><style>.cls-2{fill:#148eff;}</style></defs><g transform="translate(0 1.4211e-14)"><path class="cls-2" d="m740.4 159.94c-61.4-28.42-149.78-46.47-232.89-39.75 4.16-27.53 14.45-46.68 31.32-50.72 23.22-5.57 48.55 9.7 72.7 37.51 15.82 2 34.58 5.66 47.64 8.67-44-82.83-103.1-129.25-148-112.12-34.17 13.04-51.67 60.07-49.59 123.28-44.52 9.47-79.2 26.29-101.42 50.48-1.11 1.31-3.66 4.59-2.75 6.16 0.68 1.2 2.95-0.14 3.92-0.79 25.76-18 58.74-27.77 101.7-33.9 6.12 67.43 34.65 153 82 221.56-25.93 10.17-47.65 10.84-59.59-1.75-16.42-17.33-15.86-46.9-3.86-81.72-6.13-14.73-12.39-32.78-16.31-45.59-49.71 79.55-60.38 153.91-23.09 184.24 28.38 23.09 77.85 14.7 131.55-18.7 30.46 33.81 62.37 55.44 94.43 62.58 1.69 0.31 5.81 0.88 6.71-0.69 0.69-1.19-1.6-2.49-2.65-3-28.48-13.3-53.42-37-80.21-71.13 55.34-39 115.13-106.48 150.87-181.82 21.77 17.38 33.21 35.86 28.27 52.49-6.79 22.89-32.68 37.19-68.83 44.21-9.69 12.67-22.2 27.11-31.33 36.91 93.74 3.28 163.48-24.66 171.1-72.13 5.8-36.12-26.19-74.75-82-104.56 14.06-43.29 16.83-81.74 7-113.07-0.57-1.63-2.14-5.47-4-5.47-1.38 0-1.36 2.63-1.28 3.8 2.81 31.31-5.24 64.76-21.41 105.02zm-172.6 199.65c-39.63-63.59-62.51-138.59-62.36-214.33 74.9-2.51 151.24 15.14 216.79 53.16-35.23 66.12-88.74 123.4-154.43 161.16v0.01z"/></g></svg>
