<?xml version="1.0" encoding="utf-8"?>
<svg viewBox="350.401 0 499.647 470.249" width="499.647" height="470.249"
    xmlns="http://www.w3.org/2000/svg">
    <defs>
        <style>.cls-2{fill:#148eff;}</style>
    </defs>
    <g transform="matrix(1, 0, 0, 1, 0, 1.4210854715202004e-14)">
        <g>
            <g>
                <path class="cls-2"
                    d="M 740.4 159.94 C 679 131.52 590.62 113.47 507.51 120.19 C 511.67 92.66 521.96 73.51 538.83 69.47 C 562.05 63.9 587.38 79.17 611.53 106.98 C 627.35 108.98 646.11 112.64 659.17 115.65 C 615.17 32.82 556.07 -13.6 511.17 3.53 C 477 16.57 459.5 63.6 461.58 126.81 C 417.06 136.28 382.38 153.1 360.16 177.29 C 359.05 178.6 356.5 181.88 357.41 183.45 C 358.09 184.65 360.36 183.31 361.33 182.66 C 387.09 164.66 420.07 154.89 463.03 148.76 C 469.15 216.19 497.68 301.76 545.03 370.32 C 519.1 380.49 497.38 381.16 485.44 368.57 C 469.02 351.24 469.58 321.67 481.58 286.85 C 475.45 272.12 469.19 254.07 465.27 241.26 C 415.56 320.81 404.89 395.17 442.18 425.5 C 470.56 448.59 520.03 440.2 573.73 406.8 C 604.19 440.61 636.1 462.24 668.16 469.38 C 669.85 469.69 673.97 470.26 674.87 468.69 C 675.56 467.5 673.27 466.2 672.22 465.69 C 643.74 452.39 618.8 428.69 592.01 394.56 C 647.35 355.56 707.14 288.08 742.88 212.74 C 764.65 230.12 776.09 248.6 771.15 265.23 C 764.36 288.12 738.47 302.42 702.32 309.44 C 692.63 322.11 680.12 336.55 670.99 346.35 C 764.73 349.63 834.47 321.69 842.09 274.22 C 847.89 238.1 815.9 199.47 760.09 169.66 C 774.15 126.37 776.92 87.92 767.09 56.59 C 766.52 54.96 764.95 51.12 763.09 51.12 C 761.71 51.12 761.73 53.75 761.81 54.92 C 764.62 86.23 756.57 119.68 740.4 159.94 Z M 567.8 359.59 C 528.17 296 505.29 221 505.44 145.26 C 580.34 142.75 656.68 160.4 722.23 198.42 C 687 264.54 633.49 321.82 567.8 359.58 L 567.8 359.59 Z" />
            </g>
        </g>
    </g>
</svg>