<svg version="1.1" id="Layer_1" xmlns="http://www.w3.org/2000/svg"
    xmlns:xlink="http://www.w3.org/1999/xlink" x="0px" y="0px" viewBox="0 0 175 46"
    style="enable-background:new 0 0 175 46;" xml:space="preserve">
    <style type="text/css">
        .st0{fill:#000000;}
        .st1{fill:url(#SVGID_1_);}
        .st2{opacity:0.36;fill:#3DFFFF;}
        .st3{fill:#DACFE5;}
        .st4{fill:#BD0C34;}
        .st5{fill:url(#SVGID_00000088107402215263535740000015417893864084672902_);}
        .st6{fill:url(#SVGID_00000128469691017042461380000004646959321898506112_);}
        .st7{fill:url(#SVGID_00000018218817332771758920000012448005508324232368_);}
        .st8{fill:url(#SVGID_00000058555810379035121540000017388799038948872336_);}
        .st9{fill:url(#SVGID_00000159428904071790852110000002437022009238741151_);}
        .st10{opacity:0.33;fill:#000000;}
        .st11{fill:#C1A9CA;}
    </style>
    <g>
        <g>
            <path class="st0" d="M11,11.6c-2,2.2-3.1,5.5-3.1,9.8S9,29,11,31.2c2.1,2.2,5,3.3,8.8,3.3h5.5l4.8-6.3H19.8c-2,0-3.5-0.5-4.3-1.5
                c-0.9-1-1.3-2.8-1.3-5.3c0-2.5,0.4-4.3,1.3-5.3c0.8-1,2.3-1.5,4.3-1.5h10.3V8.4H19.8C16.1,8.4,13.1,9.5,11,11.6z"></path>
            <path class="st0" d="M103.2,25.8c3,0,5-0.7,6.4-1.9c1.3-1.3,2-3.1,2-5.4c0-2.4-0.7-4.3-2-5.7c-1.4-1.4-3.5-2.1-6.4-2.1h-6.9
                c-1.5,0-2.8,0.2-3.8,0.6c-1.1,0.4-2,1-2.7,1.8c-0.7,0.8-1.3,1.7-1.6,2.7c-0.3,1-0.4,2-0.4,3.1v7.3c0,1.2,0.2,2.2,0.4,3.2
                c0.3,1,0.9,1.9,1.6,2.7c0.7,0.8,1.6,1.4,2.7,1.8c1,0.4,2.4,0.6,3.8,0.6h8.7l5.5-6.6H96.3c-0.8,0-1.4-0.2-1.6-0.4
                c-0.3-0.3-0.4-0.8-0.4-1.3v-0.3L103.2,25.8L103.2,25.8z M94.2,20v-1c0-0.5,0.2-1,0.4-1.3c0.3-0.3,0.8-0.4,1.6-0.4h6.8
                c0.7,0,1.2,0.1,1.5,0.4c0.2,0.2,0.4,0.4,0.4,1.1c0,0.6-0.2,0.9-0.3,1c-0.1,0.1-0.4,0.3-1.6,0.3L94.2,20z"></path>
            <path class="st0" d="M166.3,24.1c-0.3-0.9-0.8-1.8-1.5-2.4c-0.7-0.7-1.6-1.2-2.7-1.6c-1.1-0.4-2.4-0.5-4.1-0.5h-5
                c-1.3,0-1.6-0.3-1.6-0.3c-0.2-0.2-0.2-0.4-0.2-0.8c0-0.4,0.1-0.8,0.3-0.9c0.1-0.1,0.4-0.3,1.3-0.3h13v-6.5h-13
                c-2.8,0-4.9,0.7-6.2,2c-1.3,1.4-2,3.2-2,5.4c0,0.9,0.1,1.8,0.4,2.7c0.3,0.9,0.8,1.8,1.4,2.5c0.7,0.7,1.6,1.3,2.7,1.7
                c1.1,0.4,2.4,0.5,4.1,0.5h5c1.1,0,1.5,0.2,1.6,0.3c0.2,0.2,0.2,0.7,0.2,0.9c0,0.4-0.1,0.8-0.2,0.9c-0.1,0.1-0.4,0.3-1.4,0.3h-13.6
                v6.6h13.6c1.4,0,2.6-0.2,3.6-0.5c1-0.4,1.9-0.9,2.6-1.6c0.7-0.7,1.2-1.5,1.5-2.5c0.3-0.9,0.4-1.9,0.4-3
                C166.7,25.8,166.6,24.9,166.3,24.1z"></path>
            <g>
                <rect x="61.8" y="8.4" class="st0" width="6.3" height="10.1"></rect>
                <path class="st0" d="M81.5,25.3c-0.4-0.7-0.7-1.4-1.1-1.9c-0.4-0.5-0.8-1-1.2-1.5c-0.3-0.3-0.7-0.7-1.1-0.9
                    c0.3-0.3,0.7-0.5,0.9-0.9c0.7-0.8,1.3-1.8,1.9-2.9l4.5-9h-6.8l-3.9,7.8c-0.3,0.6-0.6,1.1-0.8,1.4c-0.2,0.3-0.4,0.4-0.7,0.6
                    c-0.3,0.2-0.7,0.3-1.3,0.3c-0.6,0.1-1.4,0.1-2.4,0.1h-1l-6.5,5.9v10h6.3v-10h1.3c1.1,0,2,0,2.7,0.1c0.6,0.1,1.1,0.2,1.4,0.3
                    s0.6,0.3,0.8,0.6c0.3,0.3,0.5,0.8,0.8,1.4l3.9,7.7h7.1L81.5,25.3z"></path>
            </g>
            <path class="st0" d="M55.4,11.6c-2-2.2-5-3.3-8.8-3.3H35.1v6.4h6.3v-0.1h5.2c2,0,3.5,0.5,4.3,1.5c0.9,1,1.3,2.8,1.3,5.3
                s-0.4,4.3-1.3,5.3c-0.8,1-2.2,1.5-4.2,1.5h-5.2V14.7l-6.4,5.8v12.2c0,1,0.8,1.8,1.8,1.8h9.8c3.8,0,6.8-1.1,8.8-3.3
                c2-2.1,3-5.4,3-9.8C58.4,17.1,57.4,13.8,55.4,11.6z"></path>
            <path class="st0" d="M135.3,10.2l-7.5,17.4c-0.1,0-0.1,0-0.2,0c0-0.1-0.1-0.1-0.1-0.2l-6.9-17.1h-7l8,20.1c0.4,1.2,1,2,1.8,2.6
                c0.5,0.3,1.1,0.6,1.8,0.7L119.8,46h7.1l4.9-11.2l-3.8-6.6h6.6l7.8-18H135.3z"></path>
        </g>
        
            <linearGradient id="SVGID_1_" gradientUnits="userSpaceOnUse" x1="-269.8904" y1="146.4656" x2="-249.807" y2="146.4656" gradientTransform="matrix(0.8715 -0.4904 0.4904 0.8715 169.2702 -248.6725)">
            <stop offset="0.4017" style="stop-color:#FF1C30"></stop>
            <stop offset="0.998" style="stop-color:#E30040"></stop>
        </linearGradient>
        <path class="st1" d="M25.8,6c0,0-0.7-2.7-3.6-4.4c-2.9-1.8-6.1-1.7-7.2-1.2c-1.1,0.5-4.3,2.7-7.1,8c-2.8,5.3-0.6,4.1-0.6,4.1
            S12.9,7.9,17.7,7S25.8,6,25.8,6z"></path>
        <path class="st2" d="M20.2,6.5C23.6,6,25.8,6,25.8,6s-0.7-2.7-3.6-4.4c-2-1.2-4.1-1.5-5.5-1.5C17.9,0.8,18.8,2.4,20.2,6.5z"></path>
        <path class="st3" d="M22.4,8.3h5.5c-0.3-0.7-0.7-1.6-1.6-2.6c-2.1-2.5-6.5-3-9.6-2.7c-3.1,0.3-9,5.8-10.4,8.3
            c-1.2,2,0.1,5.4,0.9,6.9l1.1,0.3c0,0,0.1-2.4,2-4.7c1.9-2.3,4.5-4.4,8.9-5.2C20.2,8.4,21.3,8.3,22.4,8.3z"></path>
        <path class="st4" d="M4.2,5.8c0.4-0.4,9.4-5.6,11.7-5.6c2.5,0-1.8,6.4-4.3,7.8C9.2,9.4,4.2,5.8,4.2,5.8z"></path>
        
            <linearGradient id="SVGID_00000081639066684396703770000015116681547547413942_" gradientUnits="userSpaceOnUse" x1="-265.7213" y1="141.0765" x2="-260.929" y2="141.6165" gradientTransform="matrix(0.8715 -0.4904 0.4904 0.8715 169.2702 -248.6725)">
            <stop offset="0.4017" style="stop-color:#FF1C30"></stop>
            <stop offset="0.998" style="stop-color:#E30040"></stop>
        </linearGradient>
        <path style="fill:url(#SVGID_00000081639066684396703770000015116681547547413942_);" d="M4.7,5.5L5.2,6c0,0,4-1.5,6.9-4.3
            C9.1,3,6,4.6,4.7,5.5z"></path>
        
            <radialGradient id="SVGID_00000018199849889588855500000015655958890001392802_" cx="-273.147" cy="114.5783" r="8.0569" gradientTransform="matrix(0.9091 -0.5116 0.5256 0.9339 201.5722 -239.3819)" gradientUnits="userSpaceOnUse">
            <stop offset="0.1973" style="stop-color:#FFFFFF"></stop>
            <stop offset="1" style="stop-color:#EBE1EF"></stop>
        </radialGradient>
        <path style="fill:url(#SVGID_00000018199849889588855500000015655958890001392802_);" d="M24,7.1C23,6,20.6,3.5,17.5,2.8
            c-0.1,0-0.3,0-0.4,0c-1.8,0.1-4.4,2-6.7,4c-1.7,2.7-2.6,5.8-2.6,8.9C7.9,16,8,16.1,8.1,16.2c0.5,0.6,0.1-3.3,7.8-7
            c3.7-1.7,6.7-1.6,8.1-1.6C24.2,7.6,24.1,7.3,24,7.1z"></path>
        <g>
            
                <linearGradient id="SVGID_00000175286569186581956860000004632394268033604025_" gradientUnits="userSpaceOnUse" x1="-428.779" y1="-272.5545" x2="-423.9659" y2="-269.1532" gradientTransform="matrix(0.9948 -0.1014 0.1014 0.9948 455.9852 234.5384)">
                <stop offset="0" style="stop-color:#E9E5F1"></stop>
                <stop offset="1" style="stop-color:#DACFE5"></stop>
            </linearGradient>
            <path style="fill:url(#SVGID_00000175286569186581956860000004632394268033604025_);" d="M1.8,11.9c-0.4-0.3-0.6-0.9-0.5-1.4
                C0.5,10.2,0,9.4,0,8.6C0,7.8,0.6,7,1.4,6.7C1.1,6,1.3,5.2,1.9,4.8c0.6-0.4,1.4-0.4,2,0c0.2-0.6,0.8-1,1.4-0.9s1.1,0.7,1,1.2
                c0.2-0.2,0.6-0.3,0.8-0.1c0.2,0.2,0.3,0.5,0.2,0.7c0.7,0,1.1,1,0.6,1.4c0.8,0.3,1.3,1.1,1.2,1.9C9,9.9,8.3,10.6,7.5,10.8
                c-0.1,0.9-0.9,1.7-1.8,1.9c-0.9,0.2-1.3-0.2-2.1-0.4C3,12.1,2.3,12.3,1.8,11.9z"></path>
            
                <linearGradient id="SVGID_00000129919112334030670660000003485521035514386563_" gradientUnits="userSpaceOnUse" x1="-269.8716" y1="140.9486" x2="-270.3917" y2="148.587" gradientTransform="matrix(0.8715 -0.4904 0.4904 0.8715 169.2702 -248.6725)">
                <stop offset="0.2759" style="stop-color:#FFFFFF"></stop>
                <stop offset="0.8437" style="stop-color:#EBE1EF"></stop>
            </linearGradient>
            <path style="fill:url(#SVGID_00000129919112334030670660000003485521035514386563_);" d="M2.8,10.9c0.4,0.5,1.1,0.8,1.8,0.6
                c0.6-0.2,1.1-1,0.7-1.5c0.5,0.6,1.6,0.5,2-0.1c0.4-0.6,0.1-1.6-0.6-1.8c0.4-0.1,0.8-0.4,0.9-0.9c0-0.4-0.4-0.8-0.9-0.7
                c0-0.3-0.2-0.6-0.4-0.7C6,5.7,5.6,5.8,5.4,6c0.3-0.3,0.2-0.9-0.1-1.2c-0.3-0.2-0.7-0.3-1-0.2C4.3,4.7,4.2,4.8,4.2,4.9
                C4.2,4.9,4.1,5,4.1,5C4,5,4,5,3.9,5c-0.3-0.2-0.7-0.3-1-0.3C2.6,4.7,2.3,4.8,2.1,5C1.7,5.3,1.5,5.8,1.6,6.2c0,0.1,0.1,0.3,0.1,0.4
                c0,0,0,0.1,0,0.1c0,0-0.1,0.1-0.1,0.1C1.2,7,0.9,7.3,0.7,7.6C0.4,7.9,0.3,8.3,0.3,8.7c0,0.1,0,0.1,0,0.2c0.1,0.7,0.5,1.3,1.2,1.6
                c0.1,0,0.1,0.1,0.1,0.2c0,0.1-0.1,0.3,0,0.4c0,0.1,0,0.2,0.1,0.3C2.1,11.4,2.5,11.2,2.8,10.9z"></path>
            
                <linearGradient id="SVGID_00000006694681993601737700000007904743831914000565_" gradientUnits="userSpaceOnUse" x1="-269.5018" y1="141.7336" x2="-269.8593" y2="146.7067" gradientTransform="matrix(0.8715 -0.4904 0.4904 0.8715 169.2702 -248.6725)">
                <stop offset="0" style="stop-color:#FFB1B5"></stop>
                <stop offset="0.6346" style="stop-color:#CFA3BE"></stop>
                <stop offset="0.9942" style="stop-color:#B89DC2"></stop>
            </linearGradient>
            <path style="fill:url(#SVGID_00000006694681993601737700000007904743831914000565_);" d="M9,7.8C8.9,7.6,8.7,7.5,8.5,7.4
                C8.5,7.3,8.4,7.2,8.3,7.2c0,0,0,0,0,0l0,0c0,0,0,0,0,0l0,0c0,0,0,0,0-0.1c0-0.1,0.1-0.2,0.1-0.3c0-0.2-0.1-0.4-0.2-0.6
                C8.1,6,7.9,5.9,7.8,5.8C7.6,5.7,7.5,5.7,7.5,5.7c0,0,0-0.1,0-0.1c0-0.1,0-0.1,0-0.2c0-0.1-0.1-0.2-0.1-0.3C7.2,5.1,7.2,5,7.2,5.1
                c0,0,0,0.1,0.1,0.2c0,0.1,0.1,0.1,0.1,0.2c0,0,0,0.1,0,0.1c0,0.1-0.1,0.2-0.1,0.3c0.1,0,0.2,0,0.3,0c0.1,0,0.1,0,0.2,0.1
                c0.1,0.1,0.2,0.2,0.3,0.3C8,6.4,8,6.6,8,6.7c0,0.1,0,0.1,0,0.2l0,0c0,0,0,0,0,0L7.9,7.1c0,0.1-0.1,0.1-0.2,0.2
                c0.1,0,0.1,0.1,0.2,0.1C8,7.4,8,7.5,8.1,7.5c0.1,0,0.1,0.1,0.2,0.1C8.4,7.7,8.5,7.9,8.6,8c0.2,0.3,0.3,0.7,0.3,1
                c0,0.4-0.2,0.8-0.5,1c-0.2,0.1-0.3,0.3-0.5,0.4c-0.1,0-0.1,0-0.2,0.1l-0.1,0c0,0,0,0-0.1,0l-0.1,0l-0.1,0l0,0c0,0,0,0,0,0l0,0.2
                c0,0.1,0,0.2-0.1,0.2c-0.1,0.5-0.5,0.9-0.9,1.1c-0.4,0.3-0.9,0.4-1.3,0.4c-0.4,0-0.8-0.3-1.3-0.4c-0.1,0-0.2-0.1-0.3-0.1
                c-0.1,0-0.2,0-0.3,0c-0.2,0-0.4,0-0.6,0c-0.2,0-0.3,0-0.5-0.1c-0.1,0-0.3-0.1-0.3-0.2c-0.2-0.2-0.3-0.4-0.3-0.6
                c-0.1-0.4,0-0.6-0.1-0.6c0,0-0.1,0-0.1,0.1c0,0.1-0.1,0.3,0,0.5c0,0.2,0.1,0.5,0.3,0.7C1.7,12,1.8,12.1,2,12.2
                c0.2,0.1,0.4,0.1,0.6,0.1c0.4,0,0.8,0,1.1,0.2c0.2,0.1,0.4,0.2,0.6,0.3c0.2,0.1,0.5,0.2,0.7,0.2c1.1,0.1,2.3-0.7,2.6-1.8
                c0-0.1,0-0.2,0-0.1l0,0l0,0l0,0l0.1,0c0.1,0,0.1,0,0.2-0.1c0.3-0.1,0.5-0.3,0.7-0.4C9.1,10,9.3,9.6,9.4,9.1C9.4,8.6,9.2,8.2,9,7.8
                z"></path>
        </g>
        <path class="st10" d="M13.6,1.6c-0.5,0.5-3,3-4,4.3C9,6.6,10.3,4.4,11.7,3.1C13.3,1.4,14.3,0.9,13.6,1.6z"></path>
        <path class="st11" d="M22.4,8.3h5.5c-0.3-0.7-0.7-1.6-1.6-2.6c-0.6-0.7-1.3-1.2-2.1-1.6c1,1.4,2.1,4.1,0.1,3.8
            c-1.7-0.2-6-0.1-8.9,1.5c-3,1.3-6.1,3.7-7.6,8c-0.2-0.4-0.3-1-0.5-1.5C6.6,13,7.3,10.7,7.6,9.6c-0.6,0.7-1.2,1.5-1.5,2
            c0,0,0,0,0,0.1c-0.7,1.8,0,4.3,0.8,5.9c0.1,0.2,0.2,0.5,0.3,0.6c0.6,0.9,1.1,0.3,1.1,0.3s0.1-2.4,2-4.7c1.9-2.3,4.5-4.4,8.9-5.2
            C20.2,8.4,21.3,8.3,22.4,8.3z"></path>
    </g>
    </svg>