<?xml version="1.0" encoding="UTF-8"?>
<svg id="Layer_1" enable-background="new 0 0 175 46" version="1.1" viewBox="0 0 175 46" xml:space="preserve" xmlns="http://www.w3.org/2000/svg">
    <style type="text/css">
        .st0{fill:#000000;}
        .st1{fill:url(#SVGID_1_);}
        .st2{opacity:0.36;fill:#3DFFFF;}
        .st3{fill:#DACFE5;}
        .st4{fill:#BD0C34;}
        .st5{fill:url(#SVGID_00000088107402215263535740000015417893864084672902_);}
        .st6{fill:url(#SVGID_00000128469691017042461380000004646959321898506112_);}
        .st7{fill:url(#SVGID_00000018218817332771758920000012448005508324232368_);}
        .st8{fill:url(#SVGID_00000058555810379035121540000017388799038948872336_);}
        .st9{fill:url(#SVGID_00000159428904071790852110000002437022009238741151_);}
        .st10{opacity:0.33;fill:#000000;}
        .st11{fill:#C1A9CA;}
    </style>
    
        
            <path class="st0" d="m11 11.6c-2 2.2-3.1 5.5-3.1 9.8s1.1 7.6 3.1 9.8c2.1 2.2 5 3.3 8.8 3.3h5.5l4.8-6.3h-10.3c-2 0-3.5-0.5-4.3-1.5-0.9-1-1.3-2.8-1.3-5.3s0.4-4.3 1.3-5.3c0.8-1 2.3-1.5 4.3-1.5h10.3v-6.2h-10.3c-3.7 0-6.7 1.1-8.8 3.2z"/>
            <path class="st0" d="m103.2 25.8c3 0 5-0.7 6.4-1.9 1.3-1.3 2-3.1 2-5.4 0-2.4-0.7-4.3-2-5.7-1.4-1.4-3.5-2.1-6.4-2.1h-6.9c-1.5 0-2.8 0.2-3.8 0.6-1.1 0.4-2 1-2.7 1.8s-1.3 1.7-1.6 2.7-0.4 2-0.4 3.1v7.3c0 1.2 0.2 2.2 0.4 3.2 0.3 1 0.9 1.9 1.6 2.7s1.6 1.4 2.7 1.8c1 0.4 2.4 0.6 3.8 0.6h8.7l5.5-6.6h-14.2c-0.8 0-1.4-0.2-1.6-0.4-0.3-0.3-0.4-0.8-0.4-1.3v-0.3l8.9-0.1zm-9-5.8v-1c0-0.5 0.2-1 0.4-1.3 0.3-0.3 0.8-0.4 1.6-0.4h6.8c0.7 0 1.2 0.1 1.5 0.4 0.2 0.2 0.4 0.4 0.4 1.1 0 0.6-0.2 0.9-0.3 1s-0.4 0.3-1.6 0.3l-8.8-0.1z"/>
            <path class="st0" d="m166.3 24.1c-0.3-0.9-0.8-1.8-1.5-2.4-0.7-0.7-1.6-1.2-2.7-1.6s-2.4-0.5-4.1-0.5h-5c-1.3 0-1.6-0.3-1.6-0.3-0.2-0.2-0.2-0.4-0.2-0.8s0.1-0.8 0.3-0.9c0.1-0.1 0.4-0.3 1.3-0.3h13v-6.5h-13c-2.8 0-4.9 0.7-6.2 2-1.3 1.4-2 3.2-2 5.4 0 0.9 0.1 1.8 0.4 2.7s0.8 1.8 1.4 2.5c0.7 0.7 1.6 1.3 2.7 1.7s2.4 0.5 4.1 0.5h5c1.1 0 1.5 0.2 1.6 0.3 0.2 0.2 0.2 0.7 0.2 0.9 0 0.4-0.1 0.8-0.2 0.9s-0.4 0.3-1.4 0.3h-13.6v6.6h13.6c1.4 0 2.6-0.2 3.6-0.5 1-0.4 1.9-0.9 2.6-1.6s1.2-1.5 1.5-2.5c0.3-0.9 0.4-1.9 0.4-3 0.2-1.2 0.1-2.1-0.2-2.9z"/>
            
                <rect class="st0" x="61.8" y="8.4" width="6.3" height="10.1"/>
                <path class="st0" d="m81.5 25.3c-0.4-0.7-0.7-1.4-1.1-1.9l-1.2-1.5c-0.3-0.3-0.7-0.7-1.1-0.9 0.3-0.3 0.7-0.5 0.9-0.9 0.7-0.8 1.3-1.8 1.9-2.9l4.5-9h-6.8l-3.9 7.8c-0.3 0.6-0.6 1.1-0.8 1.4s-0.4 0.4-0.7 0.6-0.7 0.3-1.3 0.3c-0.6 0.1-1.4 0.1-2.4 0.1h-1l-6.5 5.9v10h6.3v-10h1.3c1.1 0 2 0 2.7 0.1 0.6 0.1 1.1 0.2 1.4 0.3s0.6 0.3 0.8 0.6c0.3 0.3 0.5 0.8 0.8 1.4l3.9 7.7h7.1l-4.8-9.1z"/>
            
            <path class="st0" d="m55.4 11.6c-2-2.2-5-3.3-8.8-3.3h-11.5v6.4h6.3v-0.1h5.2c2 0 3.5 0.5 4.3 1.5 0.9 1 1.3 2.8 1.3 5.3s-0.4 4.3-1.3 5.3c-0.8 1-2.2 1.5-4.2 1.5h-5.2v-13.5l-6.4 5.8v12.2c0 1 0.8 1.8 1.8 1.8h9.8c3.8 0 6.8-1.1 8.8-3.3 2-2.1 3-5.4 3-9.8-0.1-4.3-1.1-7.6-3.1-9.8z"/>
            <path class="st0" d="m135.3 10.2-7.5 17.4h-0.2c0-0.1-0.1-0.1-0.1-0.2l-6.9-17.1h-7l8 20.1c0.4 1.2 1 2 1.8 2.6 0.5 0.3 1.1 0.6 1.8 0.7l-5.4 12.3h7.1l4.9-11.2-3.8-6.6h6.6l7.8-18h-7.1z"/>
        
        
            <linearGradient id="SVGID_1_" x1="-269.89" x2="-249.81" y1="146.47" y2="146.47" gradientTransform="matrix(.8715 -.4904 .4904 .8715 169.27 -248.67)" gradientUnits="userSpaceOnUse">
            <stop stop-color="#FF1C30" offset=".4017"/>
            <stop stop-color="#E30040" offset=".998"/>
        </linearGradient>
        <path class="st1" d="m25.8 6s-0.7-2.7-3.6-4.4c-2.9-1.8-6.1-1.7-7.2-1.2s-4.3 2.7-7.1 8-0.6 4.1-0.6 4.1 5.6-4.6 10.4-5.5 8.1-1 8.1-1z"/>
        <path class="st2" d="m20.2 6.5c3.4-0.5 5.6-0.5 5.6-0.5s-0.7-2.7-3.6-4.4c-2-1.2-4.1-1.5-5.5-1.5 1.2 0.7 2.1 2.3 3.5 6.4z"/>
        <path class="st3" d="m22.4 8.3h5.5c-0.3-0.7-0.7-1.6-1.6-2.6-2.1-2.5-6.5-3-9.6-2.7s-9 5.8-10.4 8.3c-1.2 2 0.1 5.4 0.9 6.9l1.1 0.3s0.1-2.4 2-4.7 4.5-4.4 8.9-5.2c1-0.2 2.1-0.3 3.2-0.3z"/>
        <path class="st4" d="m4.2 5.8c0.4-0.4 9.4-5.6 11.7-5.6 2.5 0-1.8 6.4-4.3 7.8-2.4 1.4-7.4-2.2-7.4-2.2z"/>
        
            <linearGradient id="SVGID_00000081639066684396703770000015116681547547413942_" x1="-265.72" x2="-260.93" y1="141.08" y2="141.62" gradientTransform="matrix(.8715 -.4904 .4904 .8715 169.27 -248.67)" gradientUnits="userSpaceOnUse">
            <stop stop-color="#FF1C30" offset=".4017"/>
            <stop stop-color="#E30040" offset=".998"/>
        </linearGradient>
        <path d="m4.7 5.5 0.5 0.5s4-1.5 6.9-4.3c-3 1.3-6.1 2.9-7.4 3.8z" fill="url(#SVGID_00000081639066684396703770000015116681547547413942_)"/>
        
            <radialGradient id="SVGID_00000018199849889588855500000015655958890001392802_" cx="-273.15" cy="114.58" r="8.0569" gradientTransform="matrix(.9091 -.5116 .5256 .9339 201.57 -239.38)" gradientUnits="userSpaceOnUse">
            <stop stop-color="#fff" offset=".1973"/>
            <stop stop-color="#EBE1EF" offset="1"/>
        </radialGradient>
        <path d="m24 7.1c-1-1.1-3.4-3.6-6.5-4.3h-0.4c-1.8 0.1-4.4 2-6.7 4-1.7 2.7-2.6 5.8-2.6 8.9 0.1 0.3 0.2 0.4 0.3 0.5 0.5 0.6 0.1-3.3 7.8-7 3.7-1.7 6.7-1.6 8.1-1.6 0.2 0 0.1-0.3 0-0.5z" fill="url(#SVGID_00000018199849889588855500000015655958890001392802_)"/>
        
            
                <linearGradient id="SVGID_00000175286569186581956860000004632394268033604025_" x1="-428.78" x2="-423.97" y1="-272.55" y2="-269.15" gradientTransform="matrix(.9948 -.1014 .1014 .9948 455.99 234.54)" gradientUnits="userSpaceOnUse">
                <stop stop-color="#E9E5F1" offset="0"/>
                <stop stop-color="#DACFE5" offset="1"/>
            </linearGradient>
            <path d="m1.8 11.9c-0.4-0.3-0.6-0.9-0.5-1.4-0.8-0.3-1.3-1.1-1.3-1.9s0.6-1.6 1.4-1.9c-0.3-0.7-0.1-1.5 0.5-1.9s1.4-0.4 2 0c0.2-0.6 0.8-1 1.4-0.9s1.1 0.7 1 1.2c0.2-0.2 0.6-0.3 0.8-0.1s0.3 0.5 0.2 0.7c0.7 0 1.1 1 0.6 1.4 0.8 0.3 1.3 1.1 1.2 1.9-0.1 0.9-0.8 1.6-1.6 1.8-0.1 0.9-0.9 1.7-1.8 1.9s-1.3-0.2-2.1-0.4c-0.6-0.2-1.3 0-1.8-0.4z" fill="url(#SVGID_00000175286569186581956860000004632394268033604025_)"/>
            
                <linearGradient id="SVGID_00000129919112334030670660000003485521035514386563_" x1="-269.87" x2="-270.39" y1="140.95" y2="148.59" gradientTransform="matrix(.8715 -.4904 .4904 .8715 169.27 -248.67)" gradientUnits="userSpaceOnUse">
                <stop stop-color="#fff" offset=".2759"/>
                <stop stop-color="#EBE1EF" offset=".8437"/>
            </linearGradient>
            <path d="m2.8 10.9c0.4 0.5 1.1 0.8 1.8 0.6 0.6-0.2 1.1-1 0.7-1.5 0.5 0.6 1.6 0.5 2-0.1s0.1-1.6-0.6-1.8c0.4-0.1 0.8-0.4 0.9-0.9 0-0.4-0.4-0.8-0.9-0.7 0-0.3-0.2-0.6-0.4-0.7-0.3-0.1-0.7 0-0.9 0.2 0.3-0.3 0.2-0.9-0.1-1.2-0.3-0.2-0.7-0.3-1-0.2 0 0.1-0.1 0.2-0.1 0.3l-0.1 0.1h-0.2c-0.3-0.2-0.7-0.3-1-0.3s-0.6 0.1-0.8 0.3c-0.4 0.3-0.6 0.8-0.5 1.2 0 0.1 0.1 0.3 0.1 0.4v0.1l-0.1 0.1c-0.4 0.2-0.7 0.5-0.9 0.8-0.3 0.3-0.4 0.7-0.4 1.1v0.2c0.1 0.7 0.5 1.3 1.2 1.6 0.1 0 0.1 0.1 0.1 0.2s-0.1 0.3 0 0.4c0 0.1 0 0.2 0.1 0.3 0.4 0 0.8-0.2 1.1-0.5z" fill="url(#SVGID_00000129919112334030670660000003485521035514386563_)"/>
            
                <linearGradient id="SVGID_00000006694681993601737700000007904743831914000565_" x1="-269.5" x2="-269.86" y1="141.73" y2="146.71" gradientTransform="matrix(.8715 -.4904 .4904 .8715 169.27 -248.67)" gradientUnits="userSpaceOnUse">
                <stop stop-color="#FFB1B5" offset="0"/>
                <stop stop-color="#CFA3BE" offset=".6346"/>
                <stop stop-color="#B89DC2" offset=".9942"/>
            </linearGradient>
            <path d="m9 7.8c-0.1-0.2-0.3-0.3-0.5-0.4 0-0.1-0.1-0.2-0.2-0.2v-0.1c0-0.1 0.1-0.2 0.1-0.3 0-0.2-0.1-0.4-0.2-0.6s-0.3-0.3-0.4-0.4c-0.2-0.1-0.3-0.1-0.3-0.1v-0.3c0-0.1-0.1-0.2-0.1-0.3-0.2 0-0.2-0.1-0.2 0 0 0 0 0.1 0.1 0.2 0 0.1 0.1 0.1 0.1 0.2v0.1c0 0.1-0.1 0.2-0.1 0.3h0.3c0.1 0 0.1 0 0.2 0.1l0.3 0.3c-0.1 0.1-0.1 0.3-0.1 0.4v0.2l-0.1 0.2c0 0.1-0.1 0.1-0.2 0.2 0.1 0 0.1 0.1 0.2 0.1s0.1 0.1 0.2 0.1 0.1 0.1 0.2 0.1c0.1 0.1 0.2 0.3 0.3 0.4 0.2 0.3 0.3 0.7 0.3 1 0 0.4-0.2 0.8-0.5 1-0.2 0.1-0.3 0.3-0.5 0.4-0.1 0-0.1 0-0.2 0.1h-0.4v0.2c0 0.1 0 0.2-0.1 0.2-0.1 0.5-0.5 0.9-0.9 1.1-0.4 0.3-0.9 0.4-1.3 0.4s-0.8-0.3-1.3-0.4c-0.1 0-0.2-0.1-0.3-0.1h-0.9c-0.2 0-0.3 0-0.5-0.1-0.1 0-0.3-0.1-0.3-0.2-0.2-0.2-0.3-0.4-0.3-0.6-0.1-0.4 0-0.6-0.1-0.6 0 0-0.1 0-0.1 0.1s-0.1 0.3 0 0.5c0 0.2 0.1 0.5 0.3 0.7 0.2 0.3 0.3 0.4 0.5 0.5s0.4 0.1 0.6 0.1c0.4 0 0.8 0 1.1 0.2l0.6 0.3c0.2 0.1 0.5 0.2 0.7 0.2 1.1 0.1 2.3-0.7 2.6-1.8v-0.1h0.1c0.1 0 0.1 0 0.2-0.1 0.3-0.1 0.5-0.3 0.7-0.4 0.5-0.6 0.7-1 0.8-1.5 0-0.5-0.2-0.9-0.4-1.3z" fill="url(#SVGID_00000006694681993601737700000007904743831914000565_)"/>
        
        <path class="st10" d="m13.6 1.6c-0.5 0.5-3 3-4 4.3-0.6 0.7 0.7-1.5 2.1-2.8 1.6-1.7 2.6-2.2 1.9-1.5z"/>
        <path class="st11" d="m22.4 8.3h5.5c-0.3-0.7-0.7-1.6-1.6-2.6-0.6-0.7-1.3-1.2-2.1-1.6 1 1.4 2.1 4.1 0.1 3.8-1.7-0.2-6-0.1-8.9 1.5-3 1.3-6.1 3.7-7.6 8-0.2-0.4-0.3-1-0.5-1.5-0.7-2.9 0-5.2 0.3-6.3-0.6 0.7-1.2 1.5-1.5 2v0.1c-0.7 1.8 0 4.3 0.8 5.9 0.1 0.2 0.2 0.5 0.3 0.6 0.6 0.9 1.1 0.3 1.1 0.3s0.1-2.4 2-4.7 4.5-4.4 8.9-5.2c1-0.2 2.1-0.3 3.2-0.3z"/>
    
    </svg>
