<?xml version="1.0" encoding="UTF-8"?>
<svg width="128.27" height="56.961" viewBox="0 0 128.27 56.961" xmlns="http://www.w3.org/2000/svg"><path transform="translate(1.7764e-15)" d="m13.2 30.8v-0.5c0-2.7 16.5-23.7 44.2-30.2-34.6 2.5-57.4 25.2-57.4 30.3v0.4c0.5 5 17 23 53.7 25.9-31.7-8.5-39.9-22.9-40.5-25.9z" style=""/><path transform="translate(1.7764e-15)" d="m127.9 30.7c-0.2-6.3-22.2-28.7-59.9-30.7 31.4 6.2 46.5 27.9 46.5 30.7 0 0.3-0.1 0.7-0.2 0.8-0.4 0.7-1.3 1.9-2.8 3.3-13.2 10.9-27.2 11.9-31 12 4.1-4.3 6.8-10.4 6.8-16.7 0-12.9-10.5-23.5-23.5-23.5-12.9 0-23.4 10.5-23.4 23.4 0 27.5 35.3 30.1 57.2 22.9 18-5.9 30-18.7 30.3-21.9v-0.3zm-64.1 12.7c-7.3 0-13.3-6-13.3-13.3s6-13.3 13.3-13.3 13.3 6 13.3 13.3-6 13.3-13.3 13.3z" style=""/></svg>
