<?xml version="1.0" encoding="UTF-8"?>
<svg width="109.35px" height="54.834px" viewBox="0 0 109.35 54.834" xmlns="http://www.w3.org/2000/svg"><path d="m102.98 11.973h-11.337l-4.219 15.076-4.676-15.076h-10.5l-3.172 16.461-2.943-16.461h-11.335l-4.222 15.076-4.678-15.076h-10.5l-2.366 12.344c-1.779-7.864-8.97-12.344-19.8-12.344h-13.234v32.054h16.037c5.15 0 10.915-1.618 14.356-5.94l-1.139 5.94h11.213l2.312-13.453 3.928 13.453h8.768l3.345-13.38 2.037 13.38h16.459l2.311-13.453 3.925 13.453h8.77l3.343-13.38 2.035 13.38h11.047l-5.765-32.054zm-88.853 20.934v-9.99c2.425 0 6.111 0.109 6.111 4.974 1e-3 4.973-3.545 5.016-6.111 5.016z" fill-rule="evenodd"/></svg>
