<?xml version="1.0" encoding="utf-8"?>
<svg viewBox="0 0 109.351 54.834" width="109.351px" height="54.834px"
    xmlns="http://www.w3.org/2000/svg">
    <path
        d="M 102.982 11.973 L 91.645 11.973 L 87.426 27.049 L 82.75 11.973 L 72.25 11.973 L 69.078 28.434 L 66.135 11.973 L 54.8 11.973 L 50.578 27.049 L 45.9 11.973 L 35.4 11.973 L 33.034 24.317 C 31.255 16.453 24.064 11.973 13.234 11.973 L 0 11.973 L 0 44.027 L 16.037 44.027 C 21.187 44.027 26.952 42.409 30.393 38.087 L 29.254 44.027 L 40.467 44.027 L 42.779 30.574 L 46.707 44.027 L 55.475 44.027 L 58.82 30.647 L 60.857 44.027 L 77.316 44.027 L 79.627 30.574 L 83.552 44.027 L 92.322 44.027 L 95.665 30.647 L 97.7 44.027 L 108.747 44.027 L 102.982 11.973 Z M 14.129 32.907 L 14.129 22.917 C 16.554 22.917 20.24 23.026 20.24 27.891 C 20.241 32.864 16.695 32.907 14.129 32.907 Z"
        fill-rule="evenodd" />
</svg>