<?xml version="1.0" encoding="utf-8"?>
<svg viewBox="0 0 333.118 309.996" width="333.118px" height="309.996px"
    xmlns="http://www.w3.org/2000/svg">
    <path
        d="m303.4125 210.0225s-.45949-2.81912-.72811-2.79375l-51.155 4.93563c-4.07038.39303-7.23163 3.63912-7.51725 7.718l-1.40538 20.1425-39.575 2.82337-2.69187-18.255c-.59947-4.0605-4.14525-7.12137-8.24963-7.12137h-53.99125c-4.10287 0-7.64875 3.06087-8.24825 7.12137l-2.69337 18.255-39.575002-2.82337-1.405376-20.1425c-.285599-4.08025-3.446874-7.32638-7.51725-7.7195l-51.18-4.93425c-.264387-.0255-.458075 2.79649-.722462 2.79649l-.06925 11.07025 43.345 6.98988 1.4195 20.3225c.287 4.11425 3.606625 7.44088 7.723625 7.73638l54.503755 3.888c.20642.0141.41001.0226.6136.0226 4.09587 0 7.636-3.06237 8.2355-7.12275l2.76962-18.78375h39.59375l2.76963 18.78375c.59803 4.05913 4.1425 7.12138 8.244 7.12138.20076 0 .40152-.007.59805-.0213l54.51125-3.888c4.11562-.29549 7.43662-3.62225 7.72362-7.73638l1.418-20.3225 43.32625-7.021z"
        fill="#fff" stroke-width="1.25" transform="matrix(1, 0, 0, 1, -3.552713678800501e-15, 0)" />
    <g stroke-width=".9375" transform="matrix(1, 0, 0, 1, -3.552713678800501e-15, 0)">
        <path
            d="m133.04062 7.4975c-14.39812 3.200906-28.64156 7.656188-41.995308 14.3775.305391 11.790937 1.067625 23.08875 2.612907 34.564687-5.185875 3.3225-10.635938 6.174094-15.48 10.063125-4.9215 3.786188-9.94875 7.409719-14.404688 11.837813-8.902781-5.888531-18.324375-11.4225-28.03125-16.307813-10.463437 11.26125-20.248125 23.415938-28.2403123 37.016251 6.0129373 9.727497 12.2906253 18.844687 19.0687503 27.496877h.188597v83.47406c.15269.00094.306487.008.457762.0219l51.174375 4.93284c2.680594.25873 4.781063 2.41688 4.967625 5.10319l1.578375 22.59 44.639067 3.186 3.07434-20.85c.39868-2.70319 2.71856-4.70578 5.45287-4.70578h53.99063c2.73291 0 5.05237 2.00259 5.451 4.70578l3.07434 20.85 44.64094-3.186 1.5765-22.59c.18804-2.68622 2.28703-4.84303 4.96763-5.10319l51.15375-4.93284c.15127-.0142.30324-.0204.45592-.0219v-6.66141l.0219-.007v-76.80562h.18859c6.77925-8.65256 13.05282-17.77031 19.06875-27.496876-7.98946-13.60125-17.77875-25.755938-28.24218-37.01625-9.70407 4.88475-19.13063 10.418437-28.03313 16.307812-4.4549-4.428094-9.4725-8.051531-14.40093-11.837812-4.84238-3.889407-10.30032-6.741-15.47626-10.063125 1.54107-11.475938 2.30429-22.77375 2.61113-34.564688-13.35465-6.721812-27.59715-11.177375-42.00277-14.3779998-5.75138 9.6665628-11.01094 20.1328128-15.59157 30.3665628-5.43187-.907678-10.88906-1.244157-16.35281-1.309219v-.0073c-.0382 0-.0737.0073-.1062.0073-.0338 0-.0704-.0073-.10437-.0073v.0073c-5.47434.065-10.9275.401531-16.36031 1.309219-4.57791-10.232813-9.83344-20.7-15.59344-30.3665628zm-106.368745 213.5625c.02125 4.9455.08423 10.36313.08423 11.44219 0 48.59812 61.65 71.95687 138.243745 72.22594h.1886c76.59469-.26864 138.225-23.62782 138.225-72.22594 0-1.09856.0671-6.49388.0897-11.44219l-45.9975 4.43663-1.58569 22.71093c-.19087 2.73713-2.36785 4.91578-5.10497 5.11228l-54.51094 3.88913c-.1329.01-.26585.0146-.39733.0146-2.70891 0-5.04544-1.98928-5.44556-4.70943l-3.12563-21.19782h-44.47781l-3.12562 21.19782c-.41991 2.85309-2.97 4.90547-5.84288 4.69481l-54.510932-3.88913c-2.737125-.19651-4.914094-2.37515-5.104969-5.11228l-1.583891-22.71091-46.01625-4.43663z"
            fill="#478cbf" />
        <path
            d="m92.552813 129.60687c-17.025001 0-30.835313 13.79626-30.835313 30.82407 0 17.03906 13.809375 30.84187 30.835312 30.84187 17.033438 0 30.839998-13.80281 30.839998-30.84187 0-17.02782-13.80656-30.82407-30.839997-30.82407zm145.087497 0c-17.03625 0-30.84187 13.79626-30.84187 30.82407 0 17.03906 13.80562 30.84187 30.84187 30.84187 17.02406 0 30.83156-13.80281 30.83156-30.84187 0-17.02782-13.8075-30.82407-30.83156-30.82407zm-72.55031 18.03751c-5.48278 0-9.92625 4.04493-9.92625 9.02156v28.39031c0 4.98084 4.44337 9.02156 9.92625 9.02156 5.48287 0 9.9375-4.04072 9.9375-9.02156v-28.39031c0-4.97663-4.45434-9.02156-9.9375-9.02156z"
            fill="#fff" />
        <path
            d="m95.503125 141.79437c-11.305312 0-20.469375 9.16913-20.469375 20.47125 0 11.30213 9.164438 20.46188 20.469375 20.46188 11.310935 0 20.471255-9.15994 20.471255-20.46188 0-11.30193-9.16069-20.47125-20.471255-20.47125zm139.181255 0c-11.30251 0-20.46001 9.16913-20.46001 20.47125 0 11.30213 9.15816 20.46188 20.46001 20.46188 11.31375 0 20.46937-9.15994 20.46937-20.46188 0-11.30193-9.156-20.47125-20.46937-20.47125z"
            fill="#414042" />
    </g>
</svg>