<?xml version="1.0" encoding="UTF-8"?>
<svg width="333.12px" height="310px" viewBox="0 0 333.12 310" xmlns="http://www.w3.org/2000/svg"><path transform="translate(-3.5527e-15)" d="m303.41 210.02s-0.45949-2.8191-0.72811-2.7938l-51.155 4.9356c-4.0704 0.39303-7.2316 3.6391-7.5172 7.718l-1.4054 20.142-39.575 2.8234-2.6919-18.255c-0.59947-4.0605-4.1452-7.1214-8.2496-7.1214h-53.991c-4.1029 0-7.6488 3.0609-8.2482 7.1214l-2.6934 18.255-39.575-2.8234-1.4054-20.142c-0.2856-4.0802-3.4469-7.3264-7.5172-7.7195l-51.18-4.9342c-0.26439-0.0255-0.45808 2.7965-0.72246 2.7965l-0.06925 11.07 43.345 6.9899 1.4195 20.322c0.287 4.1142 3.6066 7.4409 7.7236 7.7364l54.504 3.888c0.20642 0.0141 0.41001 0.0226 0.6136 0.0226 4.0959 0 7.636-3.0624 8.2355-7.1228l2.7696-18.784h39.594l2.7696 18.784c0.59803 4.0591 4.1425 7.1214 8.244 7.1214 0.20076 0 0.40152-7e-3 0.59805-0.0213l54.511-3.888c4.1156-0.29549 7.4366-3.6222 7.7236-7.7364l1.418-20.322 43.326-7.021z" fill="#fff" stroke-width="1.25"/><g transform="translate(-3.5527e-15)" stroke-width=".9375"><path d="m133.04 7.4975c-14.398 3.2009-28.642 7.6562-41.995 14.378 0.30539 11.791 1.0676 23.089 2.6129 34.565-5.1859 3.3225-10.636 6.1741-15.48 10.063-4.9215 3.7862-9.9488 7.4097-14.405 11.838-8.9028-5.8885-18.324-11.422-28.031-16.308-10.463 11.261-20.248 23.416-28.24 37.016 6.0129 9.7275 12.291 18.845 19.069 27.497h0.1886v83.474c0.15269 9.4e-4 0.30649 8e-3 0.45776 0.0219l51.174 4.9328c2.6806 0.25873 4.7811 2.4169 4.9676 5.1032l1.5784 22.59 44.639 3.186 3.0743-20.85c0.39868-2.7032 2.7186-4.7058 5.4529-4.7058h53.991c2.7329 0 5.0524 2.0026 5.451 4.7058l3.0743 20.85 44.641-3.186 1.5765-22.59c0.18804-2.6862 2.287-4.843 4.9676-5.1032l51.154-4.9328c0.15127-0.0142 0.30324-0.0204 0.45592-0.0219v-6.6614l0.0219-7e-3v-76.806h0.18859c6.7792-8.6526 13.053-17.77 19.069-27.497-7.9895-13.601-17.779-25.756-28.242-37.016-9.7041 4.8848-19.131 10.418-28.033 16.308-4.4549-4.4281-9.4725-8.0515-14.401-11.838-4.8424-3.8894-10.3-6.741-15.476-10.063 1.5411-11.476 2.3043-22.774 2.6111-34.565-13.355-6.7218-27.597-11.177-42.003-14.378-5.7514 9.6666-11.011 20.133-15.592 30.367-5.4319-0.90768-10.889-1.2442-16.353-1.3092v-0.0073c-0.0382 0-0.0737 0.0073-0.1062 0.0073-0.0338 0-0.0704-0.0073-0.10437-0.0073v0.0073c-5.4743 0.065-10.928 0.40153-16.36 1.3092-4.5779-10.233-9.8334-20.7-15.593-30.367zm-106.37 213.56c0.02125 4.9455 0.08423 10.363 0.08423 11.442 0 48.598 61.65 71.957 138.24 72.226h0.1886c76.595-0.26864 138.22-23.628 138.22-72.226 0-1.0986 0.0671-6.4939 0.0897-11.442l-45.998 4.4366-1.5857 22.711c-0.19087 2.7371-2.3678 4.9158-5.105 5.1123l-54.511 3.8891c-0.1329 0.01-0.26585 0.0146-0.39733 0.0146-2.7089 0-5.0454-1.9893-5.4456-4.7094l-3.1256-21.198h-44.478l-3.1256 21.198c-0.41991 2.8531-2.97 4.9055-5.8429 4.6948l-54.511-3.8891c-2.7371-0.19651-4.9141-2.3752-5.105-5.1123l-1.5839-22.711-46.016-4.4366z" fill="#478cbf"/><path d="m92.553 129.61c-17.025 0-30.835 13.796-30.835 30.824 0 17.039 13.809 30.842 30.835 30.842 17.033 0 30.84-13.803 30.84-30.842 0-17.028-13.807-30.824-30.84-30.824zm145.09 0c-17.036 0-30.842 13.796-30.842 30.824 0 17.039 13.806 30.842 30.842 30.842 17.024 0 30.832-13.803 30.832-30.842 0-17.028-13.808-30.824-30.832-30.824zm-72.55 18.038c-5.4828 0-9.9262 4.0449-9.9262 9.0216v28.39c0 4.9808 4.4434 9.0216 9.9262 9.0216 5.4829 0 9.9375-4.0407 9.9375-9.0216v-28.39c0-4.9766-4.4543-9.0216-9.9375-9.0216z" fill="#fff"/><path d="m95.503 141.79c-11.305 0-20.469 9.1691-20.469 20.471 0 11.302 9.1644 20.462 20.469 20.462 11.311 0 20.471-9.1599 20.471-20.462 0-11.302-9.1607-20.471-20.471-20.471zm139.18 0c-11.303 0-20.46 9.1691-20.46 20.471 0 11.302 9.1582 20.462 20.46 20.462 11.314 0 20.469-9.1599 20.469-20.462 0-11.302-9.156-20.471-20.469-20.471z" fill="#414042"/></g></svg>
