<?xml version="1.0" encoding="UTF-8"?>
<svg style="height:30px;width:135px" version="1.1" viewBox="0 0 162.5 162.5" xmlns="http://www.w3.org/2000/svg"><path d="m44.4 162.5c-0.6 0-1.3 0-1.9-0.1-1.5-0.2-2.9-0.5-4.5-1-2.8-0.9-5.2-2.2-6.9-3.2-3.8-2.2-7.7-4.9-11.8-8.3-1.8-1.5-3.6-3.1-5.3-4.7l-1.4-1.4c-1-0.9-1.9-1.9-2.6-3-1.3-2-2.4-4.6-2.5-8-0.1-1.1-0.2-2.2-0.2-3.4 0-2.4 0.1-5 0.5-7.5 0.7-5.2 2.4-9.8 3.7-13.3l0.3-0.9c-0.4-0.9-0.7-1.9-1.1-2.9-1.8-5.2-3-11-3.6-16.8-0.6-6.1-0.4-12.3 0.5-18.4 0.2-1.3 0.4-2.6 0.7-3.8-2.4-3.5-5.4-8.5-7.3-14.3v-0.1c-0.4-1.2-1.4-4.2-0.8-8 0.2-1.4 0.5-2.8 1-4.3 0.9-2.8 2.2-5.1 3.2-6.8 2.2-3.8 4.9-7.6 8.2-11.7 1.5-1.8 3-3.6 4.6-5.2l1.4-1.4c0.7-0.8 1.5-1.5 2.4-2.1 2-1.5 4.8-2.8 8.6-2.9 1.2-0.1 2.5-0.2 3.8-0.2h0.1c2.5 0 5.2 0.2 7.8 0.6 4 0.6 7.6 1.7 10.8 2.9 2.1-0.9 4.3-1.7 6.6-2.5 5.4-1.8 11.2-3 17-3.4 6.1-0.5 12.3-0.2 18.2 0.8 1.4 0.2 2.8 0.5 4.2 0.8 4.7-3.2 9-5.5 13.5-6.9h0.1c1-0.4 3.2-1.1 6.1-1.1 0.6 0 1.3 0 1.9 0.1 1.5 0.2 2.9 0.5 4.5 1 2.8 0.9 5.2 2.2 6.9 3.2 3.8 2.2 7.7 4.9 11.8 8.3 1.8 1.5 3.6 3.1 5.3 4.7l1.4 1.4c0.7 0.6 1.4 1.3 1.9 2.1 1.8 2.3 3.2 5.6 3.3 10.2 0.1 1.6 0.1 3.3 0 5-0.2 3.7-0.7 7.2-1.6 10.4-0.7 2.4-1.5 4.8-2.4 7.2 1.8 4.5 3.1 9.1 4 13.8 1.8 9.9 1.6 20.1-0.6 29.9 1.3 1.9 2.5 3.7 3.5 5.5 1.7 3 3.1 6.1 4.1 9.3 0.4 1.2 1.3 4.2 0.7 8.2-0.2 1.4-0.6 2.7-1.1 4.2-1.8 5.1-4.6 9.3-7.1 12.8-2.7 3.8-5.8 7.5-9 10.9l-1.2 1.2c-0.7 0.8-1.5 1.5-2.4 2.2-2 1.5-4.8 2.7-8.6 2.9-1.2 0.1-2.5 0.2-3.8 0.2h-0.1c-2.7 0-5.4-0.2-8.2-0.7-4.5-0.7-8.5-2.1-12.1-3.5-1.9 0.8-3.9 1.5-5.8 2.1-5.6 1.7-11.5 2.8-17.4 3.1-6.1 0.4-12.3-0.1-18.3-1.2-0.7-0.1-1.5-0.3-2.2-0.4-5.2 3.7-9.8 6.1-14.6 7.7h-0.1c-1-0.1-3.2 0.7-6.1 0.7zm-19.8-28.4 10.6 3.7c0.9-2.6 1-5.4 0.4-8 0 0.2 0 0.5 0.1 0.7 0 0.3 0.1 0.7 0.1 1.1-0.1-2-0.8-4.6-2.6-7-0.7-0.9-1.5-1.7-2.4-2.4l0.5 0.4 0.9 0.9c-0.8-0.8-1.7-1.6-2.7-2.3l-4.9 12.9zm99.1-4.7c-0.8 0.8-1.6 1.6-2.3 2.7l11.9 4.6v-11.1c-1.1 0-2.2 0.1-3.2 0.4h0.6c0.3 0 0.7-0.1 1.1-0.1-1.8 0.1-4.2 0.7-6.4 2.1-1.2 0.8-2.2 1.7-3.1 2.9l0.4-0.5 1-1zm-87.9-2.6c0.5 0.4 1 0.8 1.5 1.3 2.6 2.2 5 3.9 7.2 5.2 1.4-0.7 3-1.7 4.7-3 0.5-0.3 0.9-0.7 1.4-1.1 0.3-0.2 0.5-0.5 0.8-0.7l0.4-0.4 6.2-6.3 8.4 2.9c0.3 0.1 0.6 0.2 0.8 0.3 1.8 0.6 3.6 1 5.4 1.4 3.7 0.7 7.6 1 11.4 0.7 3.6-0.2 7.3-0.9 10.7-1.9 1.7-0.5 3.4-1.1 5-1.9 0.8-0.3 1.6-0.7 2.3-1.1 2-1 4.3-1.6 6.6-1.6 3.6 0 6.3 1.3 7.6 2 0.4 0.2 0.8 0.4 1.3 0.5 2.5 1 5.4 2.2 8 2.6 0.4 0.1 0.9 0.1 1.3 0.2 1.5-1.7 2.9-3.5 4.2-5.3 0.8-1.1 1.6-2.2 2.3-3.3-0.1-0.2-0.2-0.4-0.4-0.7-0.7-1.2-1.5-2.4-2.5-3.9-0.3-0.5-0.7-0.9-1.1-1.4-0.2-0.2-0.3-0.4-0.5-0.6-4.1-4-5.5-9.7-3.6-15.1 0.1-0.3 0.2-0.6 0.3-0.8 2.3-7.2 2.7-14.9 1.4-22.3-0.7-3.5-1.7-7-3.2-10.3-0.1-0.3-0.3-0.6-0.4-0.9-3.3-6.1-1.9-11.3-0.7-13.8 0.5-1 0.9-2.1 1.3-3.1 0.8-1.9 1.4-3.9 2-5.7 0.2-0.9 0.4-1.8 0.5-2.9-0.5-0.4-1-0.8-1.5-1.3-2.7-2.2-5-3.9-7.2-5.2-1.4 0.8-3 1.8-4.8 3l-1.5 1.2c-0.1 0.1-0.3 0.2-0.4 0.4-2.7 2.6-6.3 4-10 4-1.8 0-3.5-0.3-5.2-1-0.4-0.1-0.8-0.3-1.2-0.4-1.8-0.5-3.6-1-5.5-1.3-3.7-0.6-7.6-0.8-11.4-0.5-3.6 0.3-7.2 1-10.6 2.1-1.7 0.5-3.3 1.2-4.9 1.9-0.8 0.3-1.5 0.7-2.3 1.1l-0.4 0.2c-2.1 1.2-4.6 1.8-7 1.8-2.2 0-4.4-0.5-6.5-1.5-0.5-0.2-0.9-0.4-1.4-0.6-2.4-1-5.3-2.1-7.8-2.4-0.4-0.1-0.8-0.1-1.1-0.2-0.4 0.5-0.8 1-1.2 1.4-2.2 2.7-3.9 5-5.2 7.3 0.7 1.4 1.7 2.9 2.9 4.7 0.3 0.5 0.7 1 1.1 1.4 0.2 0.3 0.5 0.5 0.7 0.8l5.8 6.1-2.5 8c-0.2 0.5-0.3 1-0.5 1.5-0.5 1.8-0.9 3.7-1.2 5.6-0.6 3.8-0.7 7.6-0.3 11.5 0.3 3.6 1.1 7.2 2.3 10.6 0.6 1.7 1.3 3.3 2 4.9l0.3 0.6c2.1 4.3 2.1 9.1-0.1 13.4-0.2 0.4-0.4 0.8-0.5 1.2-0.4 1-0.9 2-1.3 3-0.8 2.2-1.8 4.8-2.1 7.1 0 0.1-0.1 0.4-0.1 0.6zm94.1-88c0.8 0.8 1.7 1.6 2.8 2.4l4.9-12.9-10.6-3.7c-0.9 2.6-1 5.4-0.4 8v-0.3-1.3-0.1c0 1.5 0.5 4 2.1 6.4 0.8 1.1 1.7 2.1 2.8 3l-0.5-0.4-1.1-1.1zm-100.6-12.5v11.1c1.1 0 2.2-0.1 3.2-0.4h-0.6c-0.3 0-0.7 0.1-1.1 0.1 1.8-0.1 4.2-0.7 6.4-2.1 1.2-0.8 2.2-1.7 3.1-2.9l-0.4 0.5-0.9 1c0.8-0.8 1.6-1.7 2.3-2.7l-12-4.6z"/><path d="m56.3 88.4 0.7 28.3-7-5.7c-7.8 12.7-10.3 25-6.6 34.1l1.3 3.2-3.2-1.4c-7.3-3.2-13.9-7.7-19.4-13.5l-0.3-0.3-0.1-0.5c-0.4-3.5-0.2-7.3 0.7-11.2v-0.1c1.3-4.9 3.2-9.8 5.6-14.7 1.5-3.1 3.3-6.2 5.3-9.2l-6.1-5 29.1-4z" fill="#b4762c"/><path d="m105.9 74.1-0.7-28.3 7 5.7c7.8-12.7 10.3-25 6.6-34.1l-1.3-3.2 3.2 1.4c7.3 3.2 13.9 7.7 19.4 13.5l0.3 0.3 0.1 0.5c0.4 3.5 0.2 7.3-0.7 11.2v0.1c-1.3 4.9-3.2 9.8-5.6 14.7-1.5 3.1-3.3 6.2-5.3 9.2l6.1 5-29.1 4z" fill="#b4762c"/><path d="m88.5 105.4 28.3-0.7-5.7 7c12.7 7.8 25 10.3 34.1 6.6l3.2-1.3-1.4 3.2c-3.2 7.3-7.7 13.9-13.5 19.4l-0.3 0.3-0.5 0.1c-3.5 0.4-7.3 0.2-11.2-0.7h-0.1c-4.9-1.3-9.8-3.2-14.7-5.6-3.1-1.5-6.2-3.3-9.2-5.3l-5 6.1-4-29.1z" fill="#b4762c"/><path d="m74.1 57.6-28.3 0.7 5.7-7c-12.7-7.8-25-10.3-34.1-6.6l-3.1 1.3 1.4-3.2c3.2-7.3 7.7-13.9 13.5-19.4l0.3-0.3 0.5-0.1c3.5-0.4 7.3-0.2 11.2 0.7h0.1c4.9 1.3 9.8 3.2 14.7 5.6 3.1 1.5 6.2 3.3 9.2 5.3l5-6.1 3.9 29.1z" fill="#b4762c"/><circle cx="81.4" cy="80.8" r="60.5" fill="#D98F40"/><path d="m59.3 59.5c-3.5-1.6-6.1-3.2-8.7-5.1-4-2.8-7.7-5.9-10.8-9.2-7.6-7.7-11.6-15.6-10.5-22.1l-2.3 2.5c-5.5 5.8-12.8 16-12.9 20.4l0.1 0.5c1 3.4 2.6 6.8 4.9 10.1v0.1c3 4.8 8.9 12.7 29.9 21.9l-3.7 7 28.3-7.6-10.1-26.5-4.2 8z" fill="#fff"/><path d="m103.3 103.5c3.5 1.6 6.1 3.2 8.7 5.1 4 2.8 7.7 5.9 10.8 9.2 7.6 7.7 11.6 15.6 10.5 22.1l2.3-2.4c5.5-5.8 12.8-16 12.9-20.4l-0.1-0.5c-1-3.4-2.6-6.8-4.9-10.1v-0.1c-3-4.8-8.9-12.7-29.9-21.9l3.7-7-28.3 7.6 10.2 26.2 4.1-7.8z" fill="#fff"/><path d="m104 59.3c1.6-3.5 3.2-6.1 5.1-8.7 2.8-4 5.9-7.7 9.2-10.8 7.7-7.6 15.6-11.6 22.1-10.5l-2.4-2.3c-5.8-5.5-16-12.8-20.4-12.9l-0.5 0.1c-3.4 1-6.8 2.6-10.1 4.9h-0.1c-4.8 3-12.7 8.9-21.9 29.9l-7-3.7 7.6 28.3 26.4-10-8-4.3z" fill="#fff"/><path d="m58.2 103.2c-1.6 3.5-3.2 6.1-5.1 8.7-2.8 4-5.9 7.7-9.2 10.8-7.7 7.6-15.6 11.6-22.1 10.5l2.4 2.3c5.8 5.5 16 12.8 20.4 12.9l0.5-0.1c3.4-1 6.8-2.6 10.1-4.9h0.1c4.8-3 12.7-8.9 21.9-29.9l7 3.7-7.6-28.3-26.3 10 7.9 4.3z" fill="#fff"/></svg>
