<?xml version="1.0" encoding="UTF-8"?>
<svg width="30px" height="20px" viewBox="0 0 30 20" xmlns="http://www.w3.org/2000/svg"><path id="Eye_Mark" transform="translate(-118.56 -118.12)" d="M129.832,124.085v-1.807c.175-.013.353-.022.533-.028,4.941-.155,8.183,4.246,8.183,4.246s-3.5,4.863-7.255,4.863a4.553,4.553,0,0,1-1.461-.234v-5.478c1.924.232,2.31,1.082,3.467,3.01l2.572-2.169a6.81,6.81,0,0,0-5.042-2.462,9.328,9.328,0,0,0-1,.059m0-5.968v2.7c.177-.014.355-.025.533-.032,6.871-.232,11.348,5.635,11.348,5.635s-5.142,6.253-10.5,6.253a7.906,7.906,0,0,1-1.383-.122v1.668a9.1,9.1,0,0,0,1.151.075c4.985,0,8.59-2.546,12.081-5.559.578.463,2.948,1.591,3.435,2.085-3.319,2.778-11.055,5.018-15.44,5.018-.423,0-.829-.026-1.228-.064v2.344h18.947v-20Zm0,13.009v1.424c-4.611-.822-5.89-5.615-5.89-5.615a9.967,9.967,0,0,1,5.89-2.85v1.563h-.007a4.424,4.424,0,0,0-3.437,1.571s.845,3.035,3.444,3.908m-8.189-4.4a11.419,11.419,0,0,1,8.189-4.449v-1.463c-6.043.485-11.277,5.6-11.277,5.6s2.964,8.569,11.277,9.354v-1.555C123.731,133.451,121.643,126.728,121.643,126.728Z" fill="#74b71b" data-name="Eye Mark"/></svg>
