<?xml version="1.0" encoding="UTF-8"?>
<svg class="w-10 h-8 m-3" clip-rule="evenodd" fill-rule="evenodd" stroke-linejoin="round" stroke-miterlimit="2" alt="" viewBox="0 0 295 345" xmlns="http://www.w3.org/2000/svg"><g fill-rule="nonzero"><path d="M234.22 152.98l-19.92-10.84.04-24.07 19.93 10.84-.05 24.07z" fill="#074482"/><path d="M234.27 128.91l-19.93-10.84.09-46.09 19.92 10.85-.08 46.08z" fill="#074482"/><path d="M237.53 18.8L217.61 7.96 274.22 0l19.92 10.84-56.61 7.96z" fill="#095fb4"/><path d="M234.35 82.83l-19.92-10.85.12-63.59 19.92 10.84-.12 63.6z" fill="#074482"/><path d="M234.47 19.23L214.55 8.39l3.06-.43 19.92 10.84-3.06.43zM79.15 174.77l-19.93-10.84 155.08-21.79 19.92 10.84-155.07 21.79zM20.47 49.3L.55 38.46l58.92-8.28L79.4 41.02 20.47 49.3z" fill="#095fb4"/><path d="M19.93 344.28L0 333.44.55 38.46 20.47 49.3l-.54 294.98z" fill="#074482"/><path d="M294.14 10.84L294 71.57l-.14 76.29c0 16.667-5.593 31.74-16.78 45.22-11.187 13.48-24.5 21.303-39.94 23.47L79 239.18v2L78.85 336l-58.92 8.28.54-295L79.4 41l-.12 63.6-.08 46.1v24.07L234.22 153l.05-24.07.08-46.09.12-63.59 3.06-.43 56.61-7.98z" fill="#e8e8e8"/></g></svg>
