<?xml version="1.0" encoding="UTF-8"?>
<svg viewBox="0 0 64 64" xmlns="http://www.w3.org/2000/svg"><path d="M40.579 40.486c-.466.578-1.594.996-1.594.996l-8.389 3.014v-2.224l6.174-2.199c.7-.257.805-.61.24-.795-.575-.188-1.598-.133-2.305.12l-4.109 1.45v-2.313l.236-.08s1.19-.42 2.861-.601c1.67-.184 3.72.023 5.329.63 1.811.576 2.014 1.416 1.557 2.002zM29.865 30.52v14.234l-3.844-1.218V26.558c1.636.301 4.013 1.023 5.295 1.449 3.249 1.118 4.353 2.51 4.353 5.634 0 3.054-1.883 4.214-4.276 3.055v-5.685c0-.663-.123-1.281-.749-1.456-.48-.154-.779.292-.779.964zm-.343-19.877c.31-.032.612.015.912.138-1.733 2.363-2.232 6.531-2.374 8.862-.713.001-1.4.004-2.06.006.258-5.552 1.508-8.8 3.522-9.006zm-4.245 28.41l-3.96 1.419c-.7.25-.805.605-.24.789.575.194 1.595.14 2.297-.118l1.903-.686v1.995c-.122.021-.258.041-.383.063-1.898.315-3.92.185-5.917-.475-1.858-.52-2.17-1.614-1.321-2.245.783-.58 2.115-1.013 2.115-1.013l5.506-1.963v2.234zm6.268-27.471c1.655 1.714 2.778 5.254 3.256 8.06-1.4-.002-2.927-.002-4.577-.002h-.784c.158-2.567.708-6.211 2.105-8.058zm2.033-1.173c.643-.004 1.24.304 1.82.937 1.754 1.914 2.661 6.003 3 8.298l-2.194-.001c-.494-3.057-1.723-6.955-3.622-8.982.303-.158.634-.25.996-.252zm15.467 10.096c-.009-.173-.167-.31-.36-.307l-3.672-.529a.68.68 0 00-.105-.014c-.737 0-2.481-.005-5.11-.008-.311-2.393-1.22-6.38-2.934-8.696-.954-1.29-2.063-1.94-3.294-1.933a3.496 3.496 0 00-2.119.717c-.662-.389-1.353-.547-2.068-.475-3.46.352-4.541 5.442-4.767 10.397a592.65 592.65 0 00-9.105.111c-.221.004-.399.161-.411.361-.084 1.39-.406 6.844-.859 15.226-.48 8.864-.754 13.7-.82 14.978-.011.184.132.343.332.372l14.62 2.217 14.452 2.19a.468.468 0 00.329-.073v.002l7.141-4.565a.63.63 0 00.285-.548l-1.535-29.423z" fill-rule="evenodd"/></svg>
