<?xml version="1.0" encoding="UTF-8"?>
<!-- Created with Inkscape (http://www.inkscape.org/) -->
<svg id="svg2" width="111.72" height="111.12" version="1.1" xmlns="http://www.w3.org/2000/svg" xmlns:cc="http://creativecommons.org/ns#" xmlns:dc="http://purl.org/dc/elements/1.1/" xmlns:rdf="http://www.w3.org/1999/02/22-rdf-syntax-ns#" xmlns:xlink="http://www.w3.org/1999/xlink"><defs id="defs4"><radialGradient id="radialGradient3262" cx="116.52" cy="98.282" r="55.859" gradientTransform="matrix(.97443 1.5089 -.83559 .53962 59.642 -150.29)" gradientUnits="userSpaceOnUse"><stop id="stop4469" offset="0"/><stop id="stop4471" stop-opacity=".89744" offset="1"/></radialGradient><linearGradient id="linearGradient3264" x1="142.82" x2="142.82" y1="831.52" y2="878.91" gradientUnits="userSpaceOnUse"><stop id="stop4433" stop-color="#fff" offset="0"/><stop id="stop4435" stop-color="#fff" stop-opacity="0" offset="1"/></linearGradient></defs><metadata id="metadata7"><rdf:RDF><cc:Work rdf:about=""><dc:format>image/svg+xml</dc:format><dc:type rdf:resource="http://purl.org/dc/dcmitype/StillImage"/><dc:title/></cc:Work></rdf:RDF></metadata><g id="layer1" transform="translate(-42.341 -35.859)"><path id="path3834-7-7-2-5-5-0-5-4" d="m98.216 35.859c-30.851 0-55.875 24.87-55.875 55.562 0 30.692 25.024 55.562 55.875 55.562 10.095 0 19.546-2.6525 27.719-7.3125l2.9062 7.3125h2.4062 20 0.125l-8.8125-21.781c7.2154-9.3622 11.5-21.072 11.5-33.781 0-30.692-24.993-55.562-55.844-55.562z" fill="url(#radialGradient3262)"/><path id="path3661" transform="matrix(1.0465 0 0 1.292 -51.641 -1036.9)" d="m177.86 856.29c0 13.61-15.83 24.643-35.357 24.643s-35.357-11.033-35.357-24.643c0-13.61 15.83-24.643 35.357-24.643s35.357 11.033 35.357 24.643z" fill="url(#linearGradient3264)"/><path id="path4442" transform="translate(-12.33 -797.6)" d="m122.23 856.39c0 3.6263-2.9397 6.566-6.566 6.566-3.6263 0-6.566-2.9397-6.566-6.566s2.9397-6.566 6.566-6.566c3.6263 0 6.566 2.9397 6.566 6.566z"/><rect id="rect4444" transform="matrix(.98975 .14282 -.18973 .98184 0 0)" x="101.55" y="48.297" width="37.644" height="5.5005"/><rect id="rect4446" x="124.92" y="69.017" width="6.566" height="2.9042"/><path id="path3499-9-7" d="m83.388 45.011c-0.057 2.1853-3.8658 0.28296-4.0312 2.7812-4.2239-1.8805 0.32884 2.8719-0.0937 3.3125h-0.0312l-0.3125-0.0312c-0.20386-0.0728-0.49977-0.19904-0.9375-0.46875-2.9499 2.3502-3.0216 7.2337-6.0625 9.9375-1.9947 4.305-2.4798 8.9834-3.9375 13.469-0.71796 4.3029-1.3488 8.5979-0.28125 12.906 0.32053 3.5016-0.68919 8.2586 2.5 10.719 4.7273 3.883 8.6558 8.7954 12.625 13.469 6.2191 7.6533 11.729 15.863 16.594 24.438 0.32431-2.1176 1.1095 4.2646 2.5312 4.6875-0.49161-3.1923-1.1321-8.2633-1.4375-12.188-1.5814-10.291-6.653-19.649-8.5625-29.844-0.0587-0.43037-0.12809-0.87203-0.1875-1.3125v-1.2812h-0.15625c-0.62551-5.043-0.8504-10.465 2.8125-14.406 3.7397-3.7721 9.3063-4.7224 13.812-7.3437 1.0019-0.59119 2.0492-1.0717 3.125-1.4062 9e-3 -3e-3 0.0228 3e-3 0.0312 0 3.117-0.96341 6.4486-0.93323 9.6875-0.40625 0.0479 8e-3 0.10841 0.0233 0.15625 0.0312 0.29455 0.0493 0.61389 0.099 0.90625 0.15625 2.3714 0.21133 7.1446 1.1369 8-0.5-3.2722-2.7863-7.9853-2.5921-11.969-3.6875-0.63059-0.11469-1.4118-0.24041-2.1875-0.3125l-3.9062-0.875-0.96875-0.25v0.0312l-13.969-2.7188c-0.22212-0.20226-0.46434-0.40933-0.6875-0.5625l13.625 1.6875v-0.0625c0.48011 0.10699 0.95576 0.19361 1.4375 0.25v0.0312l9.625 1.7812c1.661 0.61952 3.4322 1.0837 5.0938 1.1875 2.7426 0.39907 6.2253 4.4909 7.125 4.6875-0.44096-4.307-4.7422-6.2359-8.3125-7.5-4.1712-2.028-10.402-1.9542-11.062-7.5625-0.1756-0.39076-0.34902-0.78118-0.5625-1.1562l-1.625-2.1562 0.0625-0.0312c-2.2172-2.6169-5.3401-4.522-8.6562-5.25-3.2914-1.1361-6.9877-2.2671-10.469-2.7188-1.1813 3.4783-2.5031-2.7556-5.3438-0.90625-2.49 0.29488-2.1461 0.95256-4-0.625zm17.906 10.156c0.90187-0.0238 1.9328 0.14208 2.9688 0.5 2.7626 0.95447 4.5615 2.9652 4.0312 4.5s-3.2062 1.9857-5.9688 1.0312-4.5615-2.934-4.0312-4.4688c0.33141-0.95923 1.4969-1.5228 3-1.5625z" fill="#f60"/></g></svg>
