<?xml version="1.0" encoding="UTF-8"?>
<svg width="48" height="48" version="1.1" xmlns="http://www.w3.org/2000/svg"><defs><linearGradient id="color-1" x1="6.9264" x2="94.208" y1="15.243" y2="85.892" gradientUnits="userSpaceOnUse"><stop stop-opacity=".1" offset="0"/><stop stop-opacity="0" offset="1"/></linearGradient></defs><g font-family="none" font-size="none" font-weight="none" stroke-dasharray="" text-anchor="none" style="mix-blend-mode:normal"><path id="base 1 5" d="m7 43c-1.1046 0-2-0.89543-2-2v-34c0-1.1046 0.89543-2 2-2h34c1.1046 0 2 0.89543 2 2v34c0 1.1046-0.89543 2-2 2z" fill="#333" stroke-miterlimit="10"/><path d="m6.9264 25.751 1.9278-7.711h2.0806l2.8208 2.8208c0.06031-0.24109 0.12585-0.50311 0.19396-0.77547l0.50859-2.0336 5.0113-0.02349-1.0805-1.3283c-0.59426-0.73054-1.1016-1.3574-1.1275-1.3929l-0.04707-0.06466h2.0715l2.7976 2.7976h4.1819l2.4488-2.7976h2.0715l7.0033 7.0033c0.20624-9.6e-4 0.32782-0.00215 0.32768-0.00347-2.7e-4 -0.00323-0.23712-0.95006-0.52607-2.1041l-0.52539-2.0982h2.0806l3.8543 3.8543v19.105c0 1.1046-0.89543 2-2 2h-17.372l-10.243-10.243 0.25524-0.29166z" fill="url(#color-1)" stroke-miterlimit="10"/><path id="path30 1 1" d="m15.221 30.659 1.8361-2.0982-2.6118-0.00597c-1.4365-0.00328-2.6115-0.00858-2.6111-0.01175 2.8e-4 -0.00317 0.15777-0.63259 0.34977-1.3987l0.3491-1.3929h-5.6071l1.9278-7.711h2.0807l-0.52538 2.0982c-0.28896 1.154-0.52569 2.1008-0.52607 2.1041-2.8e-4 0.00322 0.79254 0.00589 1.762 0.00589h1.7627l0.0164-0.06465c0.00903-0.03556 0.24527-0.97974 0.52499-2.0982l0.50859-2.0335 5.0113-0.0235-1.0805-1.3283c-0.59426-0.73055-1.1016-1.3574-1.1275-1.3929l-0.04707-0.06465h2.0715l2.4488 2.7976h4.5307l2.4488-2.7976h2.0715l-0.04707 0.06465c-0.02588 0.03556-0.53328 0.66237-1.1275 1.3929l-1.0805 1.3283 5.0113 0.0235 0.50859 2.0335c0.27972 1.1184 0.51597 2.0626 0.52499 2.0982l0.0164 0.06465h1.7627c0.96951 0 1.7624-0.00252 1.762-0.00589-2.8e-4 -0.00322-0.23711-0.95006-0.52607-2.1041l-0.52538-2.0982h2.0807l1.9278 7.711h-5.6071l0.3491 1.3929c0.192 0.7661 0.3494 1.3955 0.34977 1.3987 2.8e-4 0.00317-1.1746 0.00847-2.6111 0.01175l-2.6118 0.00597 3.6723 4.1964-3.1858-0.0028-3.4088-4.2046h-8.0401l-3.4088 4.2046-3.1858 0.0028zm4.7585-8.763v-1.7514h-3.5264l-0.00608 1.7279c-0.00334 0.95036-0.00112 1.7412 0.00519 1.7575 0.00894 0.02341 0.37533 0.02829 1.7693 0.0235l1.758-0.00603zm11.566 0v-1.7514l-3.5146-0.01206v3.527l3.5146-0.01206z" fill="none" stroke="#d90000" stroke-width="0"/><path id="path30 1 1" d="m15.221 30.659 1.8361-2.0982-2.6118-0.00597c-1.4365-0.00328-2.6115-0.00858-2.6111-0.01175 2.8e-4 -0.00317 0.15777-0.63259 0.34977-1.3987l0.3491-1.3929h-5.6071l1.9278-7.711h2.0807l-0.52538 2.0982c-0.28896 1.154-0.52569 2.1008-0.52607 2.1041-2.8e-4 0.00322 0.79254 0.00589 1.762 0.00589h1.7627l0.0164-0.06465c0.00903-0.03556 0.24527-0.97974 0.52499-2.0982l0.50859-2.0335 5.0113-0.0235-1.0805-1.3283c-0.59426-0.73055-1.1016-1.3574-1.1275-1.3929l-0.04707-0.06465h2.0715l2.4488 2.7976h4.5307l2.4488-2.7976h2.0715l-0.04707 0.06465c-0.02588 0.03556-0.53328 0.66237-1.1275 1.3929l-1.0805 1.3283 5.0113 0.0235 0.50859 2.0335c0.27972 1.1184 0.51597 2.0626 0.52499 2.0982l0.0164 0.06465h1.7627c0.96951 0 1.7624-0.00252 1.762-0.00589-2.8e-4 -0.00322-0.23711-0.95006-0.52607-2.1041l-0.52538-2.0982h2.0807l1.9278 7.711h-5.6071l0.3491 1.3929c0.192 0.7661 0.3494 1.3955 0.34977 1.3987 2.8e-4 0.00317-1.1746 0.00847-2.6111 0.01175l-2.6118 0.00597 3.6723 4.1964-3.1858-0.0028-3.4088-4.2046h-8.0401l-3.4088 4.2046-3.1858 0.0028zm4.7585-8.763v-1.7514h-3.5264l-0.00608 1.7279c-0.00334 0.95036-0.00112 1.7412 0.00519 1.7575 0.00894 0.02341 0.37533 0.02829 1.7693 0.0235l1.758-0.00603zm11.566-1.7514-3.5146-0.01206v3.527l3.5146-0.01206z" fill="#fff" stroke="#d90000" stroke-width="0"/><path id="base 1 1 1" d="m2 24c0-12.15 9.8497-22 22-22s22 9.8497 22 22-9.8497 22-22 22-22-9.8497-22-22z" fill="none" stroke-miterlimit="10"/><rect x="2" y="2" width="44" height="22" fill="none" stroke-miterlimit="10"/><path d="m2 24v-22h44v22z" fill="none" stroke-miterlimit="10"/><path d="m2 24v-22h44v22z" fill="none" stroke-miterlimit="10"/><path d="m2 24v-22h44v22z" fill="none" stroke-miterlimit="10"/><path d="m2 24v-22h44v22z" fill="none" stroke-miterlimit="10"/></g></svg>
