<?xml version="1.0" encoding="utf-8"?>
<!-- Generator: Adobe Illustrator 25.0.0, SVG Export Plug-In . SVG Version: 6.00 Build 0)  -->
<svg xmlns="http://www.w3.org/2000/svg" xmlns:xlink="http://www.w3.org/1999/xlink" version="1.1" id="Layer_1" x="0px" y="0px" viewBox="0 0 1024 1024" style="enable-background:new 0 0 1024 1024;" xml:space="preserve">
<style type="text/css">
	.st0{fill:#515151;}
	.st1{fill:#6D6D6D;}
	.st2{fill:#3D3D3D;}
	.st3{fill:#8C8C8C;}
	.st4{fill:#282828;}
	.st5{fill:#141414;}
	.st6{fill:#0A0A0A;}
	.st7{opacity:0.51;}
	.st8{fill:url(#SVGID_1_);}
	.st9{fill:#EDEDED;}
</style>
<rect x="0" y="682.67" class="st0" width="170.67" height="170.67"/>
<rect x="170.67" y="682.67" class="st1" width="170.67" height="170.67"/>
<rect x="341.33" y="682.67" class="st0" width="170.67" height="170.67"/>
<rect x="512" y="682.67" class="st2" width="170.67" height="170.67"/>
<rect x="0" y="512" class="st1" width="170.67" height="170.67"/>
<rect x="170.67" y="512" class="st3" width="170.67" height="170.67"/>
<rect x="341.33" y="512" class="st1" width="170.67" height="170.67"/>
<rect x="512" y="512" class="st0" width="170.67" height="170.67"/>
<rect x="0" y="341.33" class="st0" width="170.67" height="170.67"/>
<rect x="170.67" y="341.33" class="st1" width="170.67" height="170.67"/>
<rect x="341.33" y="341.33" class="st0" width="170.67" height="170.67"/>
<rect x="512" y="341.33" class="st2" width="170.67" height="170.67"/>
<rect x="0" y="170.67" class="st2" width="170.67" height="170.67"/>
<rect x="170.67" y="170.67" class="st0" width="170.67" height="170.67"/>
<rect x="341.33" y="170.67" class="st2" width="170.67" height="170.67"/>
<rect x="512" y="170.67" class="st4" width="170.67" height="170.67"/>
<rect x="682.67" y="682.67" class="st4" width="170.67" height="170.67"/>
<rect x="682.67" y="512" class="st2" width="170.67" height="170.67"/>
<rect x="682.67" y="341.33" class="st4" width="170.67" height="170.67"/>
<rect x="682.67" y="170.67" class="st5" width="170.67" height="170.67"/>
<rect x="0" class="st4" width="170.67" height="170.67"/>
<rect x="170.67" class="st2" width="170.67" height="170.67"/>
<rect x="341.33" class="st4" width="170.67" height="170.67"/>
<rect x="512" class="st5" width="170.67" height="170.67"/>
<rect x="682.67" class="st6" width="170.67" height="170.67"/>
<rect x="0" y="853.33" class="st2" width="170.67" height="170.67"/>
<rect x="170.67" y="853.33" class="st0" width="170.67" height="170.67"/>
<rect x="341.33" y="853.33" class="st2" width="170.67" height="170.67"/>
<rect x="512" y="853.33" class="st4" width="170.67" height="170.67"/>
<rect x="682.67" y="853.33" class="st5" width="170.67" height="170.67"/>
<rect x="853.33" y="682.67" class="st5" width="170.67" height="170.67"/>
<rect x="853.33" y="512" class="st4" width="170.67" height="170.67"/>
<rect x="853.33" y="341.33" class="st5" width="170.67" height="170.67"/>
<rect x="853.33" y="170.67" class="st6" width="170.67" height="170.67"/>
<rect x="853.33" y="0" width="170.67" height="170.67"/>
<rect x="853.33" y="853.33" class="st6" width="170.67" height="170.67"/>
<g class="st7">
	<linearGradient id="SVGID_1_" gradientUnits="userSpaceOnUse" x1="0" y1="512" x2="1024" y2="512">
		<stop offset="0" style="stop-color:#FFFFFF"/>
		<stop offset="1" style="stop-color:#1D1D1B"/>
	</linearGradient>
	<path class="st8" d="M996,28v968H28V28H996 M1024,0H0v1024h1024V0L1024,0z"/>
</g>
<g>
	<g>
		<path class="st9" d="M118.18,755.27v-72.51c8.3,7.32,18.25,13.92,29.85,19.78c11.59,5.86,23.8,10.8,36.62,14.83    s25.69,7.14,38.64,9.34c12.94,2.2,24.9,3.3,35.89,3.3c37.84,0,66.1-7.02,84.78-21.06c18.68-14.04,28.02-34.24,28.02-60.61    c0-14.16-3.11-26.49-9.34-36.99c-6.23-10.49-14.83-20.08-25.82-28.75c-10.99-8.66-23.99-16.97-39-24.9    c-15.01-7.93-31.19-16.3-48.52-25.08c-18.31-9.28-35.4-18.68-51.27-28.2c-15.87-9.52-29.66-20.02-41.38-31.49    c-11.72-11.47-20.94-24.47-27.65-39c-6.72-14.52-10.07-31.55-10.07-51.09c0-23.92,5.25-44.73,15.75-62.44    c10.49-17.7,24.29-32.28,41.38-43.76c17.09-11.47,36.56-20.02,58.41-25.63c21.85-5.61,44.13-8.42,66.83-8.42    c51.76,0,89.48,6.23,113.16,18.68v69.21c-31.01-21.48-70.8-32.23-119.38-32.23c-13.43,0-26.86,1.41-40.28,4.21    c-13.43,2.81-25.39,7.39-35.89,13.73c-10.5,6.35-19.04,14.53-25.63,24.54c-6.59,10.01-9.89,22.22-9.89,36.62    c0,13.43,2.5,25.03,7.51,34.79c5,9.77,12.39,18.68,22.16,26.73c9.76,8.06,21.66,15.87,35.71,23.44    c14.04,7.57,30.21,15.87,48.52,24.9c18.8,9.28,36.62,19.04,53.47,29.3c16.85,10.25,31.61,21.61,44.31,34.06    c12.69,12.45,22.76,26.25,30.21,41.38c7.44,15.14,11.17,32.47,11.17,52c0,25.88-5.07,47.79-15.2,65.73    c-10.13,17.94-23.8,32.54-41.02,43.76c-17.21,11.23-37.05,19.35-59.51,24.35c-22.46,5-46.14,7.51-71.04,7.51    c-8.3,0-18.56-0.68-30.76-2.01c-12.21-1.34-24.66-3.3-37.35-5.86c-12.7-2.56-24.72-5.73-36.07-9.52    C134.11,764.12,125.01,759.91,118.18,755.27z"/>
		<path class="st9" d="M920.88,776.51h-85.69L632.3,536.28c-7.57-9.03-12.21-15.13-13.92-18.31h-1.46v258.54H555.4V251.36h61.52    v246.83h1.46c3.42-5.37,8.06-11.35,13.92-17.94l196.29-228.88h76.54L679.91,503.32L920.88,776.51z"/>
	</g>
</g>
</svg>
