<?xml version="1.0" encoding="UTF-8"?>
<!-- Generator: Adobe Illustrator 25.0.0, SVG Export Plug-In . SVG Version: 6.00 Build 0)  -->
<svg id="Layer_1" enable-background="new 0 0 1024 1024" version="1.1" viewBox="0 0 1024 1024" xml:space="preserve" xmlns="http://www.w3.org/2000/svg">
<style type="text/css">
	.st0{fill:#515151;}
	.st1{fill:#6D6D6D;}
	.st2{fill:#3D3D3D;}
	.st3{fill:#8C8C8C;}
	.st4{fill:#282828;}
	.st5{fill:#141414;}
	.st6{fill:#0A0A0A;}
	.st7{opacity:0.51;}
	.st8{fill:url(#SVGID_1_);}
	.st9{fill:#EDEDED;}
</style>
<rect class="st0" y="682.67" width="170.67" height="170.67"/>
<rect class="st1" x="170.67" y="682.67" width="170.67" height="170.67"/>
<rect class="st0" x="341.33" y="682.67" width="170.67" height="170.67"/>
<rect class="st2" x="512" y="682.67" width="170.67" height="170.67"/>
<rect class="st1" y="512" width="170.67" height="170.67"/>
<rect class="st3" x="170.67" y="512" width="170.67" height="170.67"/>
<rect class="st1" x="341.33" y="512" width="170.67" height="170.67"/>
<rect class="st0" x="512" y="512" width="170.67" height="170.67"/>
<rect class="st0" y="341.33" width="170.67" height="170.67"/>
<rect class="st1" x="170.67" y="341.33" width="170.67" height="170.67"/>
<rect class="st0" x="341.33" y="341.33" width="170.67" height="170.67"/>
<rect class="st2" x="512" y="341.33" width="170.67" height="170.67"/>
<rect class="st2" y="170.67" width="170.67" height="170.67"/>
<rect class="st0" x="170.67" y="170.67" width="170.67" height="170.67"/>
<rect class="st2" x="341.33" y="170.67" width="170.67" height="170.67"/>
<rect class="st4" x="512" y="170.67" width="170.67" height="170.67"/>
<rect class="st4" x="682.67" y="682.67" width="170.67" height="170.67"/>
<rect class="st2" x="682.67" y="512" width="170.67" height="170.67"/>
<rect class="st4" x="682.67" y="341.33" width="170.67" height="170.67"/>
<rect class="st5" x="682.67" y="170.67" width="170.67" height="170.67"/>
<rect class="st4" width="170.67" height="170.67"/>
<rect class="st2" x="170.67" width="170.67" height="170.67"/>
<rect class="st4" x="341.33" width="170.67" height="170.67"/>
<rect class="st5" x="512" width="170.67" height="170.67"/>
<rect class="st6" x="682.67" width="170.67" height="170.67"/>
<rect class="st2" y="853.33" width="170.67" height="170.67"/>
<rect class="st0" x="170.67" y="853.33" width="170.67" height="170.67"/>
<rect class="st2" x="341.33" y="853.33" width="170.67" height="170.67"/>
<rect class="st4" x="512" y="853.33" width="170.67" height="170.67"/>
<rect class="st5" x="682.67" y="853.33" width="170.67" height="170.67"/>
<rect class="st5" x="853.33" y="682.67" width="170.67" height="170.67"/>
<rect class="st4" x="853.33" y="512" width="170.67" height="170.67"/>
<rect class="st5" x="853.33" y="341.33" width="170.67" height="170.67"/>
<rect class="st6" x="853.33" y="170.67" width="170.67" height="170.67"/>
<rect x="853.33" width="170.67" height="170.67"/>
<rect class="st6" x="853.33" y="853.33" width="170.67" height="170.67"/>
<g class="st7">
	<linearGradient id="SVGID_1_" x2="1024" y1="512" y2="512" gradientUnits="userSpaceOnUse">
		<stop stop-color="#fff" offset="0"/>
		<stop stop-color="#1D1D1B" offset="1"/>
	</linearGradient>
	<path class="st8" d="M996,28v968H28V28H996 M1024,0H0v1024h1024V0L1024,0z"/>
</g>

	
		<path class="st9" d="m118.18 755.27v-72.51c8.3 7.32 18.25 13.92 29.85 19.78 11.59 5.86 23.8 10.8 36.62 14.83s25.69 7.14 38.64 9.34c12.94 2.2 24.9 3.3 35.89 3.3 37.84 0 66.1-7.02 84.78-21.06s28.02-34.24 28.02-60.61c0-14.16-3.11-26.49-9.34-36.99-6.23-10.49-14.83-20.08-25.82-28.75-10.99-8.66-23.99-16.97-39-24.9s-31.19-16.3-48.52-25.08c-18.31-9.28-35.4-18.68-51.27-28.2s-29.66-20.02-41.38-31.49-20.94-24.47-27.65-39c-6.72-14.52-10.07-31.55-10.07-51.09 0-23.92 5.25-44.73 15.75-62.44 10.49-17.7 24.29-32.28 41.38-43.76 17.09-11.47 36.56-20.02 58.41-25.63s44.13-8.42 66.83-8.42c51.76 0 89.48 6.23 113.16 18.68v69.21c-31.01-21.48-70.8-32.23-119.38-32.23-13.43 0-26.86 1.41-40.28 4.21-13.43 2.81-25.39 7.39-35.89 13.73-10.5 6.35-19.04 14.53-25.63 24.54s-9.89 22.22-9.89 36.62c0 13.43 2.5 25.03 7.51 34.79 5 9.77 12.39 18.68 22.16 26.73 9.76 8.06 21.66 15.87 35.71 23.44 14.04 7.57 30.21 15.87 48.52 24.9 18.8 9.28 36.62 19.04 53.47 29.3 16.85 10.25 31.61 21.61 44.31 34.06 12.69 12.45 22.76 26.25 30.21 41.38 7.44 15.14 11.17 32.47 11.17 52 0 25.88-5.07 47.79-15.2 65.73s-23.8 32.54-41.02 43.76c-17.21 11.23-37.05 19.35-59.51 24.35s-46.14 7.51-71.04 7.51c-8.3 0-18.56-0.68-30.76-2.01-12.21-1.34-24.66-3.3-37.35-5.86-12.7-2.56-24.72-5.73-36.07-9.52-11.39-3.79-20.49-8-27.32-12.64z"/>
		<path class="st9" d="M920.88,776.51h-85.69L632.3,536.28c-7.57-9.03-12.21-15.13-13.92-18.31h-1.46v258.54H555.4V251.36h61.52    v246.83h1.46c3.42-5.37,8.06-11.35,13.92-17.94l196.29-228.88h76.54L679.91,503.32L920.88,776.51z"/>
	

</svg>
