<svg width="34" height="34" fill="none" xmlns="http://www.w3.org/2000/svg">
    <path
        d="M33.892 16.982C33.526-.434 9.556-6.924.33 9.395c.408.285.972.67 1.38.955a16.202 16.202 0 00-1.437 4.347C.091 15.666 0 16.647 0 17.632 0 26.674 7.591 34 16.953 34c9.363 0 16.954-7.326 16.954-16.363 0-.22 0-.438-.015-.655zM4.184 19.905c-.222 1.772-.083 2.323-.085 2.536l-.407.143c-.154-.29-.547-1.318-.719-2.699-.444-5.27 3.279-10.019 8.941-10.903 5.194-.734 10.16 2.376 11.324 6.734l-.409.143a11.75 11.75 0 00-1.123-1.25c-6.264-6.072-16.109-3.286-17.522 5.294v.002zm16.131 2.947a4.58 4.58 0 01-1.743 1.461 4.756 4.756 0 01-4.464-.183 4.542 4.542 0 01-1.608-1.6 4.355 4.355 0 01-.61-2.15 4.348 4.348 0 01.543-2.168 4.53 4.53 0 011.56-1.644 4.73 4.73 0 012.186-.71 3.856 3.856 0 012.15.522 3.674 3.674 0 011.47 1.602c.312.666.409 1.406.278 2.126a3.588 3.588 0 01-1.01 1.906l1.248.838zm9.64.173c-2.445 5.359-7.479 8.163-12.855 8.098-10.312-.489-13.31-11.985-6.42-16.137l.303.292c-.117.15-.517.462-1.161 1.68-.75 1.478-.98 2.952-.886 3.874.537 8.035 12.183 9.669 16.194 1.725C30.238 11.661 16.701.597 4.681 9.05l-.277-.268c3.163-4.787 9.337-6.93 15.235-5.503 9.021 2.185 13.864 11.266 10.32 19.744l-.002.002zm18.965-12.43v7.556c0 3.003-1.898 5.259-5.387  "
        fill="#000" />
</svg>