<?xml version="1.0" encoding="UTF-8"?>
<svg width="34px" height="34px" viewBox="0 0 34 34" xmlns="http://www.w3.org/2000/svg"><path d="m33.892 16.982c-0.366-17.416-24.336-23.906-33.562-7.587 0.408 0.285 0.972 0.67 1.38 0.955-0.682 1.374-1.166 2.837-1.437 4.347-0.182 0.969-0.273 1.95-0.273 2.935 0 9.042 7.591 16.368 16.953 16.368 9.363 0 16.954-7.326 16.954-16.363 0-0.22 0-0.438-0.015-0.655zm-29.708 2.923c-0.222 1.772-0.083 2.323-0.085 2.536l-0.407 0.143c-0.154-0.29-0.547-1.318-0.719-2.699-0.444-5.27 3.279-10.019 8.941-10.903 5.194-0.734 10.16 2.376 11.324 6.734l-0.409 0.143c-0.344-0.443-0.719-0.861-1.123-1.25-6.264-6.072-16.109-3.286-17.522 5.294v2e-3zm16.131 2.947c-0.449 0.626-1.048 1.128-1.743 1.461-1.426 0.685-3.099 0.617-4.464-0.183-0.663-0.389-1.216-0.939-1.608-1.6-0.387-0.651-0.597-1.392-0.61-2.15-0.011-0.758 0.176-1.505 0.543-2.168 0.372-0.671 0.909-1.237 1.56-1.644 0.659-0.413 1.41-0.657 2.186-0.71 0.752-0.04 1.5 0.142 2.15 0.522 0.64 0.373 1.153 0.932 1.47 1.602 0.312 0.666 0.409 1.406 0.278 2.126-0.133 0.724-0.486 1.389-1.01 1.906l1.248 0.838zm9.64 0.173c-2.445 5.359-7.479 8.163-12.855 8.098-10.312-0.489-13.31-11.985-6.42-16.137l0.303 0.292c-0.117 0.15-0.517 0.462-1.161 1.68-0.75 1.478-0.98 2.952-0.886 3.874 0.537 8.035 12.183 9.669 16.194 1.725 5.108-10.896-8.429-21.96-20.449-13.507l-0.277-0.268c3.163-4.787 9.337-6.93 15.235-5.503 9.021 2.185 13.864 11.266 10.32 19.744l-2e-3 2e-3h-2e-3z"/></svg>
