<?xml version="1.0" encoding="UTF-8"?>
<svg width="22" height="24" fill="none" viewBox="0 0 22 24" xmlns="http://www.w3.org/2000/svg"><path d="m11.599 4.2939 3.8149 2.1929c0.1371 0.07699 0.1421 0.29057 0 0.36756l-4.533 2.6076c-0.1371 0.07947-0.2992 0.0745-0.4264 0l-4.5329-2.6076c-0.13963-0.07451-0.14212-0.29305 0-0.36756l3.8124-2.1929v-4.2939l-9.7342 5.5977v11.195l3.7326-2.1456v-4.3858c-0.0025-0.1565 0.18201-0.26822 0.31915-0.1838l4.533 2.6076c0.13713 0.0795 0.21443 0.2211 0.21443 0.3676v5.2127c0.00249 0.1565-0.18202 0.2682-0.31915 0.1838l-3.8149-2.1929-3.7326 2.1457 9.7342 5.5977 9.7341-5.5977-3.7326-2.1457-3.8148 2.1929c-0.1347 0.082-0.3242-0.0248-0.3192-0.1838v-5.2127c0-0.1565 0.0873-0.2955 0.2144-0.3676l4.533-2.6076c0.1346-0.08194 0.3241 0.0224 0.3191 0.1838v4.3858l3.7326 2.1456v-11.195l-9.7341-5.5977v4.2939z" fill="#333"/></svg>
