<?xml version="1.0" encoding="UTF-8"?>
<!-- Created with Inkscape (http://www.inkscape.org/) -->
<svg id="svg4847" width="1024" height="1024" version="1.1" viewBox="0 0 270.93 270.93" xmlns="http://www.w3.org/2000/svg" xmlns:cc="http://creativecommons.org/ns#" xmlns:dc="http://purl.org/dc/elements/1.1/" xmlns:rdf="http://www.w3.org/1999/02/22-rdf-syntax-ns#"><metadata id="metadata4844"><rdf:RDF><cc:Work rdf:about=""><dc:format>image/svg+xml</dc:format><dc:type rdf:resource="http://purl.org/dc/dcmitype/StillImage"/><dc:title/></cc:Work></rdf:RDF></metadata><g id="layer1" transform="translate(-50.828 187.79)"><path id="path6160" d="m204.5-182.7c-15.964-0.11608-29.367 2.853-36.377 8.7898l-100.77 85.334c-12.21 10.34-17.347 24.496-16.426 32.06l2.9193 25.015c0.03414 0.27117 0.07996 0.55571 0.13602 0.84951l1.7604 15.615h0.01707c3.3665 16.008 15.787 33.458 37.92 53.834 9.5739 7.4082 19.174 13.831 30.178 20.275 53.565 36.213 118.92 13.516 137.2-9.3927s54.794-141.1 54.794-141.1c1.1349-2.7125 3.7115-20.314 3.7115-20.314 0.59984-1.4724 1.7452-10.4 2.1871-14.164 0 0 0.16689-4.7686-1.0869-9.0299-2.1883-8.9995-21.298-26.347-54.841-35.837l-21.234-6.0079c-13.71-3.8788-27.674-5.8324-40.09-5.9226z" fill="#bd1550"/><path id="path6162" d="m204.5-182.7c-15.964-0.11608-29.367 2.853-36.377 8.7898l-100.77 85.334c-12.21 10.34-17.347 24.496-16.426 32.06l2.9193 25.015c1.1377 9.018 14.365 30.839 38.549 46.533l31.511 20.934c55.798 36.208 123.85 30.296 140.39-10.298l55.265-137.41c0.59984-1.4724 1.7452-10.4 2.1871-14.164 0 0 0.16688-4.7686-1.0869-9.0299-2.1883-8.9995-21.298-26.347-54.841-35.837l-21.234-6.0079c-13.71-3.8788-27.674-5.8324-40.09-5.9226zm97.789 43.732c1.9008 0.33553 6.9414 3.9328 9.4593 8.3883-3.2888-1.5266-8.0252-4.3776-10.369-7.9452 0.30543-0.20922 0.6618-0.39896 0.90986-0.44314zm-66.282 161.42c1.7128 0.01953 3.5858 0.21011 5.1451 0.49477-1.4544 1.0618-3.1802 2.255-4.885 3.2407-6.9948 4.0443-14.894 5.4419-20.074 5.292 1.0258-1.2289 2.3023-2.5504 3.661-3.6076 4.9216-3.8301 10.237-5.2781 15.151-5.4118 0.33678-0.0093 0.67012-0.01181 1.0015-8e-3z" fill="#e97f02"/><path id="path6164" d="m69.852-87.228c-25.297 21.661-18.288 60.47 23.942 87.257l30.252 19.19c53.883 34.18 119.73 29.687 136.1-8.5738l58.436-136.59c6.3266-14.787-19.264-34.174-53.959-44.038 0 0-20.629-5.8654-20.629-5.8654-30.308-8.6171-61.883-7.505-73.8 2.7l-100.34 85.923m143.26 108.41c1.6373-2.8869 3.8756-6.9989 9.0602-9.8403 10.16-5.5686 22.175-3.2043 27.49-1.1054 2.9901 1.7854-3.1499 9.8408-13.476 15.811-10.621 6.1408-22.926 6.1981-25.446 3.9637-0.45581-1.5129 0.71167-5.902 2.3714-8.829m87.807-166.12c0.5105-1.1 1.8305-2.2992 2.6425-2.444 1.9794 0.34946 7.3239 4.1573 9.7221 8.8728 2.4887 4.8923 2.217 9.1571-5e-3 8.5477-3.5067-1.3743-10.349-5.0801-12.589-9.9195-1.0897-2.3539-0.28564-3.9475 0.23095-5.057" fill="#f8ca00"/><path id="path6166" d="m74.078-87.148c-0.06077 0.04254-0.10332 0.09055-0.15194 0.13553-2.0317 3.9897 1.6294 9.0386 1.1097 13.554-0.78095 7.2869-5.3153 9.5477-15.178 18.662 1.021 17.381 13.221 36.593 36.714 51.298l28.664 17.941c23.447 14.675 50.542 21.6 74.714 20.391 4.6182-9.4663 10.217-25.249 19.988-29.833 9.5987-4.8366 25.431 0.90639 36.833-5.3443l55.6-124.11c-2.9865-6.0959-13.282-10.352-15.513-14.909-2.2158-4.1485 1.9053-8.8433 3.9601-11.908-9.2377-7.036-22.572-13.416-38.137-17.869 0 0-19.73-5.6441-19.73-5.6441-16.759-4.7944-33.637-6.3938-47.064-5.1205-4.2056 3.8474-4.6292 5.5086-10.786 6.6508-3.9844 0.75305-10.034 0.20298-13.291 1.4262-0.0608 0.0365-0.0851 0.0687-0.12155 0.10392l-97.607 84.578" fill="#490a3d"/><path id="path6168" d="m209.81-172.93c3.6064-3.6324 14.895-4.0424 25.582-0.94194 9.6109 2.788 16.116 7.6651 15.221 11.628 1.2641 1.3142 3.9552 2.3097 6.69 2.634 0.76333-0.0121 1.5589 0.0122 2.3781 0.0681l0.94748 0.0705c2.5428 0.23884 5.2242 0.76551 7.804 1.5338 8.5576 2.5506 14.097 7.1564 12.16 10.308-1.9855 3.2315-10.969 3.6016-19.836 0.80849-4.9805-1.5688-8.9837-3.8744-10.825-6.193 0 0-0.1884-0.22851-0.1884-0.22851-0.44365-0.60805-0.72261-1.2026-0.83625-1.7699-1.3948-1.2696-4.267-2.343-7.0176-2.5742-1.0301 0.11425-2.1235 0.17989-3.2678 0.19448 0 0-0.0608 8.5e-4 -0.0608 8.5e-4 -4.9179 0.0693-10.512-0.78983-15.638-2.3932-11.156-3.4985-16.85-9.3928-13.124-13.145v1.8e-4m-121.91 122.77c-8.8962 8.9588-5.0704 23.414 9.5708 32.228 13.415 8.0635 30.822 8.3038 40.501 0.54393 4.0464-0.51233 8.1966 1.2676 10.775 4.1981 0.48619 0.98892 1.0714 1.971 1.7533 2.9358l0.81012 1.1083c2.3155 2.9164 5.4466 5.5506 9.1046 7.6409 12.25 6.9945 26.644 6.109 31.569-1.9078 4.7343-7.7058-1.3498-18.81-13.07-24.885-6.5332-3.3788-13.902-4.6934-20-3.5909l-0.6126 0.10453c-1.602 0.34034-3.0819 0.84786-4.4062 1.5113-3.7249 0.19022-7.9572-1.5908-10.169-4.3908-0.35857-1.3109-0.86846-2.6158-1.5169-3.9001v-0.06077c-2.7221-5.4213-7.8429-10.264-14.329-13.661-14.002-7.3106-31.489-6.4011-39.952 2.1224v-1.82e-4" fill="#bd1550"/><path id="path6170" d="m90.728-85.395 89.06-81.342c0.17625-0.16166 0.66487-0.17989 1.0952-0.0425l102.46 33.02c0.5652 0.18172 0.92134 0.49835 0.801 0.71003l-63.835 112.44c-0.2431 0.42785-1.0344 0.47343-1.7734 0.10332l-127.47-63.902c-0.5105-0.25464-0.65697-0.69605-0.33426-0.98953" fill="#e97f02"/><path id="path6172" d="m117.9-56.639c-0.44609 0.02033-0.77718 0.12469-0.9562 0.32274l-5.1598 5.5212-1e-3 0.0013 1e-3 0.0067 0.35474 4.901 1.6484 5.8199 3.1847 1.759-0.72283 0.8135 1e-3 4e-3 0.25071 4.901 2.7006 6.2093 9.6447 5.4865c1.4178 0.8066 4.0112-0.3554 5.7919-2.5845l0.96687-1.2096c0.90128-1.1283 1.398-2.2965 1.4856-3.2754h0.0186l0.22272-4.7957-9e-3 -0.0027c0.11973-0.97172-0.16736-1.7665-0.88952-2.1538l-9.7474-5.2264v-0.0014l-0.10136 0.0014 3.5248-4.1062c0.16288-0.20481 0.30242-0.54586 0.32674-0.71748l0.06-4.769h-8e-3c9e-3 -0.95942-1.9091-2.6655-4.721-4.1182l-1.7617-0.91086c-2.3951-1.2372-4.767-1.9374-6.1053-1.8764zm-20.412 1.0776c-1.3667-0.06683-3.3372 0.87717-4.8917 2.4392l-1.0562 1.0616c-1.3358 1.3426-2.0142 2.7828-1.8924 3.7848h-0.0014l0.0014 4e-3 0.92153 5.1851c0.04254 0.21028 0.24025 0.55582 0.60946 0.7655l8.2831 4.713-4.6543 4.9824c-0.18049 0.18728-0.22831 0.43873-0.1707 0.73215-2e-5 -3.4e-5 -0.0068 3.7e-5 -0.0068 0 6.08e-4 -0.03038 0.73216 4.6423 0.73216 4.6423h0.01864c-0.05469 1.0685 1.7405 2.9548 4.509 4.5943l1.7844 1.0589c3.288 1.9469 6.6102 2.7733 7.4149 1.8364l5.4585-6.36-0.29873-4.9024v-0.0053h-1e-3l-1.787-6.2467-3.09-1.7057 0.81218-0.90019-0.40276-4.9037 1e-3 -0.0014-2.5165-5.7692-8.9392-4.793c-0.23843-0.12785-0.52213-0.19662-0.83751-0.21204zm133.17-120.59c-1.2622 0.0452-2.2714 0.31773-2.7312 0.8055-0.14577 0.1547-0.22059 0.32309-0.24405 0.49877l-5e-3 -1e-3 -0.69748 2.5539 5e-3 3e-3c-0.28929 0.96121 1.2476 2.2192 3.8035 2.9806 2.9203 0.86963 6.0136 0.75336 6.8814-0.25738 0.0966-0.11244 0.15073-0.23332 0.18538-0.35608l0.012 4e-3 1.0522-2.7139-4e-3 -1e-3c0.25025-0.97173-1.3897-2.2186-4.0062-2.9606-1.4746-0.41825-2.9894-0.6-4.2516-0.55478zm-15.177 0.54278c-1.2675 0.0454-2.2966 0.31957-2.7899 0.8095-0.17509 0.17398-0.26676 0.36441-0.29073 0.56412l-5e-3 -1e-3 -0.28006 2.6539 0.024 7e-3c-0.14464 0.94037 1.2693 2.1036 3.6408 2.8259 2.8685 0.87345 5.9768 0.75579 6.9121-0.26005 0.0784-0.0851 0.11289-0.17896 0.15603-0.27073l0.0253 7e-3 0.0173-0.0734c0.0182-0.0547 0.0305-0.11163 0.0427-0.16937l0.60946-2.6126-0.012-3e-3c0.24234-0.96784-1.3037-2.1876-3.8275-2.9193-1.4492-0.42005-2.9548-0.60289-4.2222-0.55746zm23.425 6.8108c-1.302 0.0481-2.3332 0.33883-2.7899 0.85885-0.099 0.1127-0.16118 0.23221-0.20004 0.35608l-8e-3 -1e-3 -0.96687 2.7299h3e-3c-0.26132 1.0247 1.3752 2.3616 4.0422 3.174 3.0495 0.92863 6.2413 0.80335 7.1002-0.27606 0.0365-0.0425 0.0365-0.0903 0.0627-0.13469l0.0253 5e-3 1.3163-2.7392c9e-3 -0.0177 0.0175-0.0354 0.0253-0.0533l0.0147-0.0307-4e-3 -1e-3c0.41694-1.0541-1.3522-2.4681-4.2062-3.2954-1.539-0.44606-3.1122-0.64019-4.4143-0.59213zm-15.655 0.57746c-1.3076 0.0483-2.3603 0.3391-2.8526 0.86151-0.14451 0.15333-0.22629 0.3192-0.26273 0.49211l-5e-3 -1e-3 -0.50944 2.6859 0.012 3e-3c-0.2109 1.0163 1.3195 2.3045 3.8608 3.0967 2.9955 0.93356 6.2016 0.80828 7.1322-0.27606 0.1021-0.11912 0.16126-0.24675 0.20138-0.37741l0.012 3e-3 0.82284-2.6726c0.011-0.0324 0.0236-0.0643 0.0307-0.0974l9e-3 -0.0307-5e-3 -1e-3c0.18335-1.0288-1.4509-2.3156-4.0635-3.09-1.5118-0.44809-3.0747-0.64306-4.3823-0.59479zm37.659 7.1255c-2.8651-0.0277-5.1274 0.54125-5.9919 1.675-0.20404 0.26747-0.31649 0.55374-0.35208 0.85352l-5e-3 -1e-3 -0.65881 3.5141 0.012 4e-3c-0.4558 2.0183 2.854 4.7177 8.1244 6.3627 5.9741 1.8648 12.021 1.6208 13.402-0.54012 0.0644-0.10088 0.10477-0.20559 0.1467-0.31073l0.012 3e-3 0.0307-0.0814c4e-3 -0.0121 6e-3 -0.0238 0.012-0.036l1.3043-3.7341-9e-3 -3e-3c0.62287-2.0958-3.0534-4.9168-8.6205-6.5454-2.5841-0.75598-5.1771-1.1387-7.4056-1.1602zm-93.744 128.4c-4.281-0.07654-8.0163 1.2577-10.013 3.9355-0.64133 0.8601-1.0606 1.806-1.2789 2.8046l-4e-3 -0.0027-1.2243 5.3918c-0.0365 0.14768-0.37683 1.2825-0.26805 2.8459 0.0851 1.2269 0.57667 3.0835 2.1618 5.2504 1.585 2.1671 3.9946 4.4912 7.2109 6.2973 8.2228 4.6176 17.746 4.0076 21.135-1.2976 0.45521-0.71234 0.76021-1.4703 0.86152-1.8644l1.479-5.7919-3e-3 -0.0014c1.2752-4.9515-2.6633-11.149-9.638-14.8-3.4301-1.7956-7.0899-2.7077-10.42-2.7673z" fill="#e97f02"/><path id="path6174" d="m111.78-50.794s1.6885 5.8215 1.6885 5.8215l3.9756 2.1456 7.8517-0.7742s5.0494-5.7477 5.0494-5.7477c0.71677-0.81565-1.3407-2.829-4.5815-4.5033l-1.762-0.9101c-3.1935-1.6495-6.3454-2.346-7.0615-1.5538 0 0-5.1601 5.522-5.1601 5.522m-11.28 12.071 7.9512-0.76479 4.0061 2.212 1.7881 6.2519s-5.5863 6.359-5.5863 6.359c-0.8238 0.93696-4.2239 0.11182-7.5897-1.8351l-1.8286-1.0579c-3.3123-1.9162-5.2933-4.1802-4.4372-5.0685 0 0 5.6964-6.0966 5.6964-6.0966m26.182-1.4188s-8.1702 0.09724-8.1702 0.09724l-2.2658 2.5502s2.7643 6.2071 2.7643 6.2071l9.8736 5.4871c1.4515 0.80654 4.1075-0.35492 5.9304-2.5839l0.98923-1.2095c1.7899-2.1886 2.0587-4.5527 0.62652-5.3207l-9.748-5.2273m-19.422-10.415s2.5166 5.7688 2.5166 5.7688-2.2964 2.4838-2.2964 2.4838-8.1216 0.09542-8.1216 0.09542l-9.035-5.0209c-1.2854-0.71404-0.73349-2.8767 1.212-4.8321l1.0564-1.0619c1.9132-1.9225 4.4578-2.9081 5.7294-2.2262l8.9386 4.7931m112.44-124.49c2.9197 0.8464 4.5356 2.3471 3.5816 3.354-0.96279 1.0157-4.1596 1.1324-7.1125 0.2589-2.9304-0.86707-4.4762-2.3726-3.4815-3.361 0.98655-0.97986 4.1139-1.0917 7.0124-0.2516m23.616 6.8453c3.1018 0.8991 4.9298 2.4932 4.0539 3.5627-0.88397 1.0793-4.1703 1.2028-7.3095 0.27409-3.1149-0.9217-4.8697-2.5211-3.9482-3.5704 0.91338-1.04 4.1258-1.1583 7.2038-0.26619m-4.6107-4.0521c-0.89332 1.0111-4.077 1.1272-7.0831 0.25769-2.9829-0.86312-4.6263-2.3619-3.6992-3.3458 0.91964-0.97555 4.0339-1.0869 6.983-0.25039 2.971 0.84258 4.6845 2.3365 3.7992 3.3389m-7.2538 8.2111c-0.9578 1.0843-4.2578 1.2084-7.3415 0.2747-3.0586-0.92601-4.7089-2.5329-3.7154-3.587 0.98467-1.0448 4.2109-1.1636 7.2345-0.26741 3.0474 0.90329 4.7715 2.5048 3.8225 3.5794m36.86 4.1118c5.9928 1.7532 9.8023 4.8892 8.4078 7.0137-1.4183 2.1608-7.6309 2.4076-13.77 0.54272-6.0477-1.837-9.5987-4.9927-8.0355-7.0418 1.5369-2.0156 7.491-2.2427 13.398-0.51476m-90.73 130.01c8.0174 4.197 12.027 11.759 8.7121 16.925-3.404 5.3052-13.073 5.8878-21.332 1.2701-8.0693-4.5109-11.453-12.144-7.8116-17.028 3.5493-4.7606 12.592-5.2713 20.432-1.1669" fill="#f8ca00"/><path id="path6176" d="m180.86-162.87c0.17199-0.15923 0.64828-0.17686 1.0679-0.0425l100.45 32.963c-20.863 36.858-41.029 72.49-61.891 109.35-0.23702 0.41995-1.1012 0.52388-1.8218 0.16044-41.808-20.956-81.795-41.004-123.6-61.96z" fill="#f8ca00" opacity=".95"/></g></svg>
