<?xml version="1.0" encoding="UTF-8"?>
<svg fill="none" viewBox="0 0 49 49" xmlns="http://www.w3.org/2000/svg"><path d="m38.41 17.535c-0.4256-0.6025-1.0302-1.0555-1.7278-1.2948-0.6977-0.2394-1.4531-0.2529-2.1588-0.0385-1.8884 0.3983-2.85 4.3016-4.3333 5.8332-1.4833 1.5317-2.815 0.4317-4.5-1.13-1.6849-1.5616-2.3549-2.0866-3.3983-2.2366-1.0433-0.15-1.8183 0.4333-3.2599 2.1033-1.4417 1.67-1.4417 2.26-2.9516 3.39-1.51 1.1299-3.3983-1.735-4.6667-1.435-1.2683 0.3-1.1349 1.9833 0 3.3966 0.5102 0.7934 1.1969 1.4582 2.0064 1.9424 0.8095 0.4843 1.7199 0.7749 2.6603 0.8492 2.3649 0.1667 3.7066-2.0449 5.1149-3.0583 1.4083-1.0133 2.6883 0.0334 5.0799 2.7583 0.318 0.4533 0.7272 0.8351 1.2015 1.1209 0.4743 0.2857 1.0031 0.4691 1.5524 0.5383 0.5494 0.0692 1.1071 0.0227 1.6374-0.1364 0.5304-0.1592 1.0215-0.4275 1.442-0.7878 0.8709-0.706 1.6009-1.57 2.1516-2.5466 0.0671 1.9524-0.2553 3.8986-0.9485 5.725s-1.7432 3.4964-3.0888 4.9126-2.9598 2.5502-4.7485 3.3358c-1.7886 0.7856-3.7157 1.207-5.669 1.2397-2.6307-0.1168-5.1697-1.0005-7.3045-2.5421-2.1348-1.5417-3.7721-3.674-4.7103-6.1344-1.0299-2.6013-1.5296-5.3821-1.4698-8.1792 0.05982-2.7971 0.67795-5.5541 1.8181-8.1089 1.6258-3.6298 4.0365-6.8539 7.0582-9.4399 1.3872-0.94515 3.0216-1.4617 4.6999-1.4854 1.6784-0.02371 3.3267 0.44647 4.74 1.3521 1.8883 1.3333 2.5 2.285 3.9466 3.4233 0.5646 0.4181 1.2569 0.6267 1.9584 0.5902s1.3685-0.3158 1.8866-0.7902c0.5917-0.4278 0.9964-1.0666 1.1305-1.7844 0.134-0.7178-0.013-1.4596-0.4105-2.0722-1.8533-1.9583-5.6766-6.8449-12.843-6.8449-5.6299 0-9.3332 3.0916-12.975 6.8482-3.0992 3.5906-5.3081 7.8614-6.4474 12.466s-1.1766 9.4124-0.10923 14.034c2.0083 8.9266 9.7449 15 19.6 15 4.3282 0.0053 8.5348-1.4319 11.955-4.0843s5.8591-6.3689 6.9314-10.562c1.7833-7.4999 0.0766-15.04-0.85-16.166z" clip-rule="evenodd" fill="url(#paint0_linear_2_54)" fill-rule="evenodd"/><defs><linearGradient id="paint0_linear_2_54" x1="1.1612" x2="44.029" y1="10.782" y2="33.816" gradientUnits="userSpaceOnUse"><stop stop-color="#FFE76D" offset="0"/><stop stop-color="#FFC757" offset=".347"/><stop stop-color="#FF5454" offset="1"/></linearGradient></defs></svg>
