<?xml version="1.0" encoding="UTF-8"?>
<svg viewBox="0 0 1024 1024" xmlns="http://www.w3.org/2000/svg"><path d="m1004 826.37c0 19.456-15.872 35.328-33.792 35.328h-14.336c-10.24 0-18.432 9.216-18.432 19.456 1.536 20.992-5.12 43.008-23.552 67.584-24.576 33.792-66.56 52.224-108.03 52.224h-781.31c-16.896 0-32.768-11.776-35.328-28.672-4.096-20.992 12.8-40.448 33.792-40.448h96.256c10.24 0 19.456-9.216 18.432-20.992-1.536-9.216-1.536-19.456 0-28.672 2.56-11.776-6.656-22.016-18.432-22.016h-96.256c-18.432 0-35.328-14.336-35.328-33.792s15.872-35.328 33.792-35.328h143.36c6.656 0 11.776-2.56 15.872-7.68 5.12-6.656 10.24-14.336 15.872-22.016 9.216-11.776 0-29.696-14.336-29.696h-2.56c-18.432 0-35.328-14.336-35.328-33.792s15.872-35.328 33.792-35.328h100.35l57.344-59.904c10.24-10.24 23.552-15.872 37.888-15.872h113.15c18.432 0 35.328-14.336 35.328-33.792s-15.872-35.328-33.792-35.328h-27.648c-15.872 0-24.576-19.456-12.8-31.232l177.15-182.27c15.872-15.872 22.016-29.696 22.016-41.472 0-24.576-18.432-32.768-54.784-32.768h-399.87c-19.456 0-35.328-14.336-35.328-33.792s15.872-35.328 33.792-35.328h54.784c16.896 0 31.232-11.776 35.328-27.136 4.096-22.016-12.8-41.472-33.792-41.472h-58.368c-19.456-1.536-35.328-18.432-31.232-38.912 2.56-16.896 18.432-28.672 35.328-28.672h869.89c18.432 0 35.328 14.336 35.328 33.792s-14.336 35.328-33.792 35.328h-19.968c-11.776 0-19.456 10.24-18.432 20.992 5.12 37.888-6.656 98.816-71.68 166.91l-422.91 435.2c-33.792 35.328-28.672 65.024 10.24 72.704h427.01c18.432 4.096 35.328 18.432 35.328 36.864z"/></svg>
